<?xml version="1.0" standalone="no"?><!DOCTYPE svg PUBLIC "-//W3C//DTD SVG 1.1//EN" "http://www.w3.org/Graphics/SVG/1.1/DTD/svg11.dtd"><svg t="1742372645417" class="icon" viewBox="0 0 1024 1024" version="1.1" xmlns="http://www.w3.org/2000/svg" p-id="5032" xmlns:xlink="http://www.w3.org/1999/xlink" width="200" height="200"><path d="M512 1020C232 1020 4 792 4 512S232 4 512 4 1020 232 1020 512 792 1020 512 1020z m0-984C249.6 36 36 249.6 36 512s213.6 476 476 476 476-213.6 476-476S774.4 36 512 36z" fill="#303C42" p-id="5033"></path><path d="M196 904.8c-1.6 0-3.2-0.8-4.8-1.6-4-2.4-4.8-7.2-1.6-11.2C257.6 795.2 312.8 592.8 288 421.6c-8-92.8-40-187.2-94.4-281.6-5.6-10.4-8-13.6-3.2-18.4 2.4-2.4 6.4-3.2 9.6-0.8 2.4 1.6 3.2 3.2 4 5.6 0.8 1.6 1.6 3.2 4 6.4 56 96.8 88 193.6 96 288 25.6 174.4-31.2 381.6-101.6 481.6-1.6 0.8-4 2.4-6.4 2.4z" fill="#303C42" p-id="5034"></path><path d="M240 329.6c-3.2 0-6.4-2.4-8-5.6-0.8-4 1.6-8.8 5.6-9.6l70.4-19.2c4-0.8 8.8 1.6 9.6 5.6 0.8 4-1.6 8.8-5.6 9.6l-70.4 19.2H240zM256 404.8c-4 0-7.2-2.4-8-6.4-0.8-4 2.4-8.8 6.4-8.8l72-12c4-0.8 8.8 2.4 8.8 6.4 0.8 4-2.4 8.8-6.4 8.8l-72 12H256zM264.8 481.6c-4 0-8-3.2-8-7.2 0-4.8 3.2-8 7.2-8.8l72.8-4c4 0 8 3.2 8.8 7.2 0 4.8-3.2 8-7.2 8.8l-73.6 4zM337.6 562.4l-73.6-4c-4.8 0-8-4-7.2-8.8 0-4.8 4-8 8.8-7.2l72.8 4c4.8 0 8 4 7.2 8.8 0 4-4 7.2-8 7.2zM328.8 647.2h-1.6l-72-12c-4-0.8-7.2-4.8-6.4-8.8 0.8-4 4.8-7.2 8.8-6.4l72 12c4 0.8 7.2 4.8 6.4 8.8 0 3.2-4 6.4-7.2 6.4zM310.4 730.4h-2.4l-70.4-19.2c-4-0.8-6.4-5.6-5.6-9.6 0.8-4 5.6-6.4 9.6-5.6l70.4 19.2c4 0.8 6.4 5.6 5.6 9.6-0.8 3.2-4 5.6-7.2 5.6z" fill="#303C42" p-id="5035"></path><path d="M828 904.8c-1.6 0-3.2 0-4-0.8-2.4-1.6-3.2-3.2-4-5.6l-3.2-6.4c-56-96.8-88-193.6-96-288-25.6-174.4 31.2-381.6 101.6-481.6 2.4-4 7.2-4.8 11.2-1.6 4 2.4 4.8 7.2 1.6 11.2C766.4 228.8 711.2 431.2 736 602.4c8 92.8 40 187.2 94.4 281.6 5.6 10.4 8 13.6 3.2 18.4-1.6 1.6-3.2 2.4-5.6 2.4z" fill="#303C42" p-id="5036"></path><path d="M713.6 730.4c-3.2 0-6.4-2.4-8-5.6-0.8-4 1.6-8.8 5.6-9.6l70.4-19.2c4-0.8 8.8 1.6 9.6 5.6 0.8 4-1.6 8.8-5.6 9.6l-70.4 19.2h-1.6zM695.2 647.2c-4 0-7.2-2.4-8-6.4-0.8-4 2.4-8.8 6.4-8.8l72-12c4-0.8 8.8 2.4 8.8 6.4 0.8 4-2.4 8.8-6.4 8.8l-72 12h-0.8zM686.4 562.4c-4 0-8-3.2-8-7.2 0-4.8 3.2-8 7.2-8.8l72.8-4c4.8 0 8 3.2 8.8 7.2 0 4.8-3.2 8-7.2 8.8l-73.6 4zM759.2 481.6l-73.6-4c-4.8 0-8-4-7.2-8.8 0-4.8 4-8 8.8-7.2l72.8 4c4.8 0 8 4 7.2 8.8 0 4-4 7.2-8 7.2zM768 404.8h-1.6l-72-12c-4.8-0.8-7.2-4.8-6.4-8.8 0.8-4 4.8-7.2 8.8-6.4l72 12c4 0.8 7.2 4.8 6.4 8.8 0 4-4 6.4-7.2 6.4zM784 329.6h-2.4L712 309.6c-4-0.8-6.4-5.6-5.6-9.6 0.8-4 5.6-6.4 9.6-5.6l70.4 19.2c4 0.8 6.4 5.6 5.6 9.6-0.8 4-4 6.4-8 6.4z" fill="#303C42" p-id="5037"></path></svg>