<?xml version="1.0" standalone="no"?><!DOCTYPE svg PUBLIC "-//W3C//DTD SVG 1.1//EN" "http://www.w3.org/Graphics/SVG/1.1/DTD/svg11.dtd"><svg t="1752744837884" class="icon" viewBox="0 0 1024 1024" version="1.1" xmlns="http://www.w3.org/2000/svg" p-id="6074" xmlns:xlink="http://www.w3.org/1999/xlink" width="200" height="200"><path d="M524.8 70.4L576 38.4c-19.2 0-32-6.4-51.2-6.4h-51.2l51.2 38.4zM147.2 358.4l134.4 51.2 217.6-147.2 6.4-147.2L409.6 44.8c-121.6 25.6-230.4 102.4-300.8 204.8l38.4 108.8zM518.4 300.8L313.6 441.6 384 684.8l249.6 6.4 83.2-236.8zM544 115.2v147.2l204.8 153.6 140.8-44.8 38.4-102.4c-64-108.8-166.4-185.6-288-224L544 115.2zM96 364.8l-19.2-57.6c-12.8 25.6-25.6 57.6-32 89.6l51.2-32zM953.6 403.2l-6.4-44.8-12.8 32zM819.2 876.8h-64l-19.2 57.6c32-12.8 57.6-32 83.2-57.6zM902.4 422.4l-134.4 38.4-89.6 249.6 83.2 121.6h108.8c76.8-83.2 121.6-192 121.6-307.2v-32l-89.6-70.4zM249.6 812.8L339.2 704 262.4 454.4l-140.8-51.2-89.6 64v38.4c-6.4 115.2 38.4 224 102.4 313.6l115.2-6.4zM179.2 857.6c25.6 25.6 51.2 44.8 76.8 57.6l-19.2-57.6h-57.6zM716.8 851.2L640 742.4l-268.8-6.4-89.6 115.2 38.4 102.4c57.6 25.6 115.2 38.4 179.2 38.4 64 0 121.6-6.4 179.2-32l38.4-108.8z" fill="#7F8592" p-id="6075"></path></svg>