<?xml version="1.0" standalone="no"?><!DOCTYPE svg PUBLIC "-//W3C//DTD SVG 1.1//EN" "http://www.w3.org/Graphics/SVG/1.1/DTD/svg11.dtd"><svg t="1742374512899" class="icon" viewBox="0 0 1024 1024" version="1.1" xmlns="http://www.w3.org/2000/svg" p-id="17288" xmlns:xlink="http://www.w3.org/1999/xlink" width="200" height="200"><path d="M636 744.8c-20 0-39.2-11.2-48.8-29.6L476 577.6l-88.8-20-20.8 64c-3.2 10.4-9.6 19.2-17.6 25.6-0.8 0.8-2.4 1.6-3.2 2.4L196 720c-8 6.4-17.6 9.6-27.2 11.2-18.4 1.6-36.8-5.6-48-20-19.2-23.2-16-58.4 7.2-77.6 0.8-0.8 2.4-1.6 3.2-2.4l136-60.8 24.8-76.8 46.4-184.8-53.6 5.6-47.2 71.2c-8.8 13.6-24 22.4-40 24.8-12.8 1.6-25.6-1.6-36-8.8-25.6-16.8-32-51.2-15.2-76L207.2 232c8.8-13.6 24-22.4 40-24.8l128-13.6h10.4c4 0 7.2 0.8 10.4 1.6l109.6 20 56.8-5.6L599.2 128c6.4-13.6 16.8-24 30.4-28.8 13.6-5.6 28.8-4.8 42.4 0.8 28 12.8 40 44.8 28 72.8l-49.6 110.4c-8 17.6-24.8 30.4-44.8 32l-92.8 9.6L480 465.6l44 10.4c16 4 28.8 13.6 36.8 28l123.2 159.2c0.8 0.8 1.6 1.6 1.6 2.4 13.6 27.2 1.6 60-25.6 73.6-5.6 2.4-12 4.8-18.4 5.6h-5.6zM376.8 523.2c1.6 0 3.2 0 4.8 0.8 0.8 0 1.6 0.8 2.4 0.8l103.2 24c3.2 0.8 6.4 2.4 8.8 5.6l116 143.2c0.8 0.8 1.6 1.6 1.6 3.2 4 8.8 13.6 14.4 24 13.6 2.4 0 5.6-0.8 8-2.4 11.2-5.6 16-18.4 11.2-30.4l-121.6-160c-0.8-0.8-1.6-1.6-1.6-2.4-3.2-6.4-8.8-11.2-16-12.8l-60-13.6c-4-0.8-8-3.2-9.6-7.2-2.4-3.2-3.2-8-1.6-12l39.2-166.4c1.6-6.4 7.2-11.2 13.6-12l104-11.2c8-0.8 16-6.4 19.2-13.6l48-110.4c5.6-12 0-25.6-12-31.2-5.6-2.4-12-2.4-18.4-0.8-5.6 2.4-10.4 6.4-12.8 12.8l-40 89.6c-2.4 4.8-7.2 8.8-12.8 9.6l-68 7.2h-4.8l-112.8-20c-0.8 0-1.6 0-1.6-0.8-1.6-0.8-3.2-0.8-5.6-0.8h-4l-128 13.6c-7.2 0.8-13.6 4.8-17.6 10.4l-61.6 92.8c-7.2 11.2-4 25.6 6.4 32.8 4.8 3.2 9.6 4 15.2 4 7.2-0.8 13.6-4.8 17.6-10.4l51.2-77.6c2.4-4 7.2-6.4 11.2-7.2l83.2-8.8c4.8-0.8 10.4 1.6 13.6 5.6 3.2 4 4.8 8.8 3.2 14.4L320 502.4v0.8l-27.2 84c-1.6 4-4.8 8-8.8 9.6L144 659.2c-8.8 8.8-9.6 22.4-1.6 32 4.8 6.4 12.8 9.6 20.8 8.8 4.8-0.8 8.8-2.4 12.8-5.6 0.8-0.8 2.4-1.6 3.2-2.4L328 622.4c3.2-2.4 4.8-6.4 6.4-9.6l25.6-78.4c1.6-4 4-7.2 8-9.6 4-1.6 6.4-1.6 8.8-1.6z" fill="#303C42" p-id="17289"></path><path d="M468 182.4c-18.4 0-36-6.4-50.4-17.6-16.8-13.6-27.2-32.8-29.6-54.4-2.4-21.6 4-42.4 17.6-59.2 13.6-16.8 32.8-27.2 54.4-29.6 44-4.8 84 27.2 88 71.2 2.4 21.6-4 42.4-17.6 59.2-13.6 16.8-32.8 27.2-54.4 29.6-1.6 0.8-4.8 0.8-8 0.8z m0.8-128.8H464c-12.8 1.6-24.8 8-32.8 17.6-8 10.4-12 23.2-10.4 36 1.6 12.8 8 24.8 17.6 32.8 10.4 8 23.2 12 36 10.4 12.8-1.6 24.8-8 32.8-17.6 8-10.4 12-23.2 10.4-36-3.2-24.8-24.8-43.2-48.8-43.2zM996 920.8H28c-8.8 0-16-7.2-16-16 0-76 62.4-138.4 138.4-138.4h845.6c8.8 0 16 7.2 16 16v123.2c0 8.8-7.2 15.2-16 15.2zM44.8 889.6h936V798.4H150.4c-53.6 0-98.4 40-105.6 91.2z" fill="#303C42" p-id="17290"></path><path d="M124 1002.4h-96c-8.8 0-16-7.2-16-16v-80.8c0-8.8 7.2-16 16-16h96c8.8 0 16 7.2 16 16v80.8c-0.8 8.8-7.2 16-16 16z m-80.8-32h64.8v-49.6H43.2v49.6zM996 1002.4h-96c-8.8 0-16-7.2-16-16v-80.8c0-8.8 7.2-16 16-16h96c8.8 0 16 7.2 16 16v80.8c0 8.8-7.2 16-16 16z m-80-32h64.8v-49.6h-64.8v49.6zM996 798.4c-7.2 0-13.6-4.8-15.2-12.8l-110.4-523.2H768c-8.8 0-16-7.2-16-16s7.2-16 16-16h115.2c7.2 0 13.6 5.6 15.2 12.8l112.8 535.2c1.6 8.8-4 16.8-12 18.4-0.8 1.6-1.6 1.6-3.2 1.6z" fill="#303C42" p-id="17291"></path><path d="M883.2 262.4c-3.2 0-7.2-0.8-9.6-3.2-6.4-5.6-8-15.2-2.4-22.4l84.8-106.4c5.6-7.2 15.2-8 22.4-2.4 6.4 5.6 8 15.2 2.4 22.4L896 256.8c-3.2 4-8 5.6-12.8 5.6z" fill="#303C42" p-id="17292"></path></svg>