<?xml version="1.0" standalone="no"?><!DOCTYPE svg PUBLIC "-//W3C//DTD SVG 1.1//EN" "http://www.w3.org/Graphics/SVG/1.1/DTD/svg11.dtd"><svg t="1742372815743" class="icon" viewBox="0 0 1024 1024" version="1.1" xmlns="http://www.w3.org/2000/svg" p-id="13232" xmlns:xlink="http://www.w3.org/1999/xlink" width="200" height="200"><path d="M512 224c-60.8 0-109.6-49.6-109.6-109.6C402.4 53.6 452 4.8 512 4.8c60.8 0 109.6 49.6 109.6 109.6C621.6 174.4 572.8 224 512 224z m0-188c-43.2 0-77.6 35.2-77.6 77.6 0 43.2 35.2 77.6 77.6 77.6 43.2 0 77.6-35.2 77.6-77.6 0-42.4-34.4-77.6-77.6-77.6zM427.2 1020c-34.4 0-63.2-28-63.2-63.2V356H166.4c-34.4 0-63.2-28-63.2-63.2s28-63.2 63.2-63.2h691.2c34.4 0 63.2 28 63.2 63.2s-28 63.2-63.2 63.2H660v223.2l86.4 136c9.6 15.2 12.8 33.6 7.2 51.2-4.8 17.6-16.8 32-33.6 39.2l-230.4 109.6v41.6c0.8 35.2-28 63.2-62.4 63.2zM166.4 261.6c-16.8 0-31.2 13.6-31.2 31.2s13.6 31.2 31.2 31.2h213.6c8.8 0 16 7.2 16 16v617.6c0 16.8 13.6 31.2 31.2 31.2 16.8 0 31.2-13.6 31.2-31.2v-52c0-6.4 4-12.8 10.4-15.2 0.8 0 1.6-0.8 3.2-0.8l235.2-112c8-4 14.4-11.2 16.8-19.2 2.4-8.8 0.8-17.6-4-25.6L630.4 592c-1.6-2.4-2.4-5.6-2.4-8.8V340c0-8.8 7.2-16 16-16h213.6c16.8 0 31.2-13.6 31.2-31.2s-13.6-31.2-31.2-31.2H166.4z" fill="#303C42" p-id="13233"></path><path d="M474.4 808.8c-1.6 0-3.2-0.8-4-1.6-2.4-1.6-4-4-4-6.4V650.4c0-4.8 3.2-8 8-8h100.8c2.4 0 5.6 1.6 6.4 4l50.4 78.4c1.6 1.6 1.6 4 0.8 6.4-0.8 2.4-2.4 4-4 4.8l-151.2 72c-0.8 0.8-2.4 0.8-3.2 0.8z m8-150.4v129.6l131.2-62.4-43.2-67.2h-88z" fill="#303C42" p-id="13234"></path></svg>