<?xml version="1.0" standalone="no"?><!DOCTYPE svg PUBLIC "-//W3C//DTD SVG 1.1//EN" "http://www.w3.org/Graphics/SVG/1.1/DTD/svg11.dtd"><svg t="1742372707258" class="icon" viewBox="0 0 1024 1024" version="1.1" xmlns="http://www.w3.org/2000/svg" p-id="7465" xmlns:xlink="http://www.w3.org/1999/xlink" width="200" height="200"><path d="M587.2 1018.4c-238.4 0-432.8-194.4-432.8-432.8 0-106.4 39.2-208.8 109.6-288 5.6-6.4 16-7.2 22.4-1.6 6.4 5.6 7.2 16 1.6 22.4-65.6 73.6-101.6 168-101.6 266.4 0 220.8 180 400.8 400.8 400.8s400.8-180 400.8-400.8S808 184 587.2 184C487.2 184 392 220.8 318.4 288c-6.4 5.6-16.8 5.6-22.4-0.8-5.6-6.4-5.6-16.8 0.8-22.4 80-72 183.2-112 290.4-112 238.4 0 432.8 194.4 432.8 432.8 0 239.2-194.4 432.8-432.8 432.8z" fill="#303C42" p-id="7466"></path><path d="M587.2 870.4c-156.8 0-284.8-128-284.8-284.8 0-67.2 24-132 66.4-183.2 3.2-3.2 8-4 11.2-0.8 3.2 3.2 4 8 0.8 11.2-40.8 48-63.2 109.6-63.2 172.8 0 148 120.8 268.8 268.8 268.8S856 733.6 856 585.6 735.2 316.8 587.2 316.8c-64 0-126.4 23.2-175.2 64.8-3.2 3.2-8 2.4-11.2-0.8-3.2-3.2-2.4-8 0.8-11.2 52-44.8 117.6-68.8 185.6-68.8 156.8 0 284.8 128 284.8 284.8s-128 284.8-284.8 284.8z" fill="#303C42" p-id="7467"></path><path d="M587.2 701.6c-64 0-116-52-116-116 0-21.6 6.4-43.2 17.6-61.6 2.4-4 7.2-4.8 11.2-2.4 4 2.4 4.8 7.2 2.4 11.2-10.4 16-15.2 34.4-15.2 52.8 0 55.2 44.8 100 100 100s100-44.8 100-100-44.8-100-100-100c-20 0-39.2 5.6-56 16.8-4 2.4-8.8 1.6-11.2-2.4-2.4-4-1.6-8.8 2.4-11.2 19.2-12.8 41.6-20 64.8-20 64 0 116 52 116 116 0 64.8-52 116.8-116 116.8z" fill="#303C42" p-id="7468"></path><path d="M571.2 611.2c-9.6 0-20-4-27.2-11.2L205.6 260.8l-48.8 12c-5.6 1.6-11.2 0-15.2-4L8.8 136c-4-4-5.6-10.4-4-16 1.6-5.6 6.4-9.6 12-11.2l73.6-17.6 17.6-73.6c1.6-5.6 5.6-10.4 11.2-12 5.6-1.6 11.2 0 16 4l132.8 132.8c4 4 5.6 9.6 4 15.2l-12 48.8 338.4 338.4c7.2 7.2 11.2 16.8 11.2 27.2 0 10.4-4 20-11.2 27.2-7.2 8-17.6 12-27.2 12z m-360.8-384c4 0 8 1.6 11.2 4.8l344.8 344.8c2.4 2.4 6.4 2.4 8.8 0 1.6-1.6 1.6-3.2 1.6-4.8 0-0.8 0-3.2-1.6-4.8l-344-344c-4-4-5.6-9.6-4-15.2l12-48.8L132 52.8l-13.6 55.2c-1.6 5.6-5.6 10.4-12 12l-55.2 13.6L157.6 240l48.8-12c1.6-0.8 2.4-0.8 4-0.8z" fill="#303C42" p-id="7469"></path></svg>