<?xml version="1.0" standalone="no"?><!DOCTYPE svg PUBLIC "-//W3C//DTD SVG 1.1//EN" "http://www.w3.org/Graphics/SVG/1.1/DTD/svg11.dtd"><svg t="1742372764341" class="icon" viewBox="0 0 1024 1024" version="1.1" xmlns="http://www.w3.org/2000/svg" p-id="11534" xmlns:xlink="http://www.w3.org/1999/xlink" width="200" height="200"><path d="M750.4 1020c-38.4 0-90.4-15.2-119.2-88-4-10.4-4-22.4 1.6-32.8 7.2-14.4 68.8-141.6 9.6-196.8L462.4 610.4c-17.6-8.8-31.2-24.8-36.8-44-6.4-19.2-4.8-39.2 4.8-56.8L481.6 408 54.4 189.6c-8-4-11.2-13.6-7.2-21.6L96 73.6c1.6-4 5.6-6.4 9.6-8 4-1.6 8.8-0.8 12 0.8l646.4 330.4c4 2.4 7.2 5.6 8 10.4 0.8 4 0.8 8.8-2.4 12.8-1.6 2.4-37.6 64 56 159.2 86.4 87.2 31.2 294.4-8.8 410.4-4 12-14.4 21.6-26.4 25.6-8 1.6-23.2 4.8-40 4.8zM83.2 168.8l427.2 218.4c4 1.6 6.4 5.6 8 9.6 1.6 4 0.8 8.8-0.8 12l-59.2 115.2c-5.6 10.4-6.4 21.6-2.4 32.8 3.2 11.2 11.2 20 21.6 24.8l181.6 92.8c0.8 0.8 2.4 1.6 3.2 2.4 77.6 68.8 12.8 208.8-0.8 236.8-0.8 1.6-0.8 4 0 6.4 30.4 76.8 88.8 72.8 121.6 64 2.4-0.8 4-2.4 4.8-4.8 64-184.8 70.4-322.4 16-376.8C718.4 515.2 725.6 448 736 419.2L116.8 102.4l-33.6 66.4z" fill="#303C42" p-id="11535"></path><path d="M271.2 179.2c-2.4 0-4.8-0.8-7.2-1.6l-134.4-68.8c-4-2.4-7.2-5.6-8-9.6-1.6-4-0.8-8.8 1.6-12.8l45.6-74.4c3.2-4.8 8-8 13.6-8s10.4 3.2 13.6 7.2l88.8 143.2c4 6.4 3.2 13.6-1.6 19.2-3.2 4-7.2 5.6-12 5.6zM160 88l68 35.2-44.8-72.8L160 88zM874.4 587.2c-4 0-8.8-1.6-11.2-4.8l-20-20c-68-69.6-52-126.4-51.2-128.8 1.6-4.8 4.8-8 8.8-10.4 4-1.6 9.6-1.6 13.6 0.8l155.2 79.2c8 4 11.2 13.6 7.2 21.6l-15.2 30.4c-4 7.2-12 10.4-19.2 8-4-1.6-38.4-12-52.8 16-2.4 4.8-6.4 8-12 8.8-1.6-0.8-2.4-0.8-3.2-0.8z m-8-47.2c1.6 1.6 4 4 6.4 7.2 19.2-19.2 46.4-21.6 65.6-17.6l2.4-4.8-118.4-60.8c3.2 16.8 12.8 44 44 76zM547.2 797.6c-15.2 0-30.4-3.2-44-10.4-23.2-12-40.8-32-48.8-56.8-8-24.8-5.6-51.2 5.6-74.4l26.4-51.2c1.6-4 5.6-6.4 9.6-8 4-1.6 8.8-0.8 12 0.8L653.6 672c8 4 11.2 13.6 7.2 21.6l-26.4 51.2c-17.6 33.6-51.2 52.8-87.2 52.8z m-29.6-39.2c32 16.8 72 4 88.8-28.8l18.4-36.8-117.6-60-18.4 36.8c-8 16-9.6 33.6-4 50.4 5.6 16.8 16.8 30.4 32.8 38.4z" fill="#303C42" p-id="11536"></path><path d="M546.4 723.2c-5.6 0-11.2-0.8-16.8-2.4-4-0.8-6.4-5.6-5.6-9.6 0.8-4 5.6-6.4 9.6-5.6 39.2 10.4 66.4-33.6 70.4-40v-0.8c1.6-4 6.4-5.6 10.4-3.2 4 1.6 5.6 6.4 3.2 10.4v0.8c-2.4 5.6-28.8 50.4-71.2 50.4zM624.8 584c-1.6 0-2.4 0-4-0.8l-131.2-67.2c-4-2.4-5.6-7.2-3.2-10.4 2.4-4 7.2-5.6 10.4-3.2l131.2 67.2c4 2.4 5.6 7.2 3.2 10.4-0.8 2.4-4 4-6.4 4zM655.2 524c-1.6 0-2.4 0-4-0.8L520.8 456c-4-2.4-5.6-7.2-3.2-10.4 2.4-4 7.2-5.6 10.4-3.2l131.2 67.2c4 2.4 5.6 7.2 3.2 10.4-1.6 2.4-4 4-7.2 4zM684.8 465.6c-1.6 0-2.4 0-4-0.8l-131.2-67.2c-4-2.4-5.6-7.2-3.2-10.4 2.4-4 7.2-5.6 10.4-3.2L688 451.2c4 2.4 5.6 7.2 3.2 10.4-0.8 2.4-3.2 4-6.4 4z" fill="#303C42" p-id="11537"></path></svg>