<?xml version="1.0" standalone="no"?><!DOCTYPE svg PUBLIC "-//W3C//DTD SVG 1.1//EN" "http://www.w3.org/Graphics/SVG/1.1/DTD/svg11.dtd"><svg t="1742374524495" class="icon" viewBox="0 0 1024 1024" version="1.1" xmlns="http://www.w3.org/2000/svg" p-id="17585" xmlns:xlink="http://www.w3.org/1999/xlink" width="200" height="200"><path d="M179.736273 1004.807056c-1.806395 0-3.612789 0-5.419184-0.225799a88.58108 88.58108 0 0 1-61.19162-29.579713 89.077839 89.077839 0 0 1 7.225578-125.318633l119.44785-106.351489C167.31731 601.981036 198.703418 428.115546 319.506064 320.635061c215.412569-191.477839 424.051158-205.477398 572.852922-38.385888 148.575965 167.09151 110.415877 372.794708-104.996693 564.498346a351.163131 351.163131 0 0 1-429.244542 29.579714l-119.44785 106.351488c-16.483352 14.225358-37.256891 22.128335-58.933628 22.128335z m472.372217-770.201543c-111.544873 0-219.251158 75.868578-287.442558 136.608599a283.062051 283.062051 0 0 0-52.611246 361.504741c8.580375 13.999559 6.096582 32.289305-6.322382 43.127674l-139.99559 124.415436a21.225138 21.225138 0 0 0-1.806394 29.579713c3.612789 4.064388 8.806174 6.548181 14.451157 6.999779 5.644983 0.225799 11.064168-1.580595 15.128556-5.193384l139.99559-124.415436c12.193164-10.838368 30.70871-11.515766 43.579272-1.128997 108.383682 86.029548 261.927233 81.739361 365.34333-10.16097 107.706284-95.73892 263.733627-284.055568 99.351709-468.759427-60.062624-67.514002-125.544432-92.577729-189.671444-92.577728z m112.673869 586.626681zM300.764719 263.959427c-69.771996 0-126.673429-56.901433-126.673429-126.673429S230.992723 10.612569 300.764719 10.612569s126.673429 56.901433 126.673429 126.673429-56.901433 126.673429-126.673429 126.673429z m0-185.607057c-32.515105 0-58.933627 26.418523-58.933627 58.933628s26.418523 58.933627 58.933627 58.933627 58.933627-26.418523 58.933627-58.933627-26.418523-58.933627-58.933627-58.933628z" fill="#919191" p-id="17586"></path><path d="M764.782359 855.102095c-4.290187 0-8.580375-0.903197-12.870562-2.483793-320.635061-131.189416-437.373319-481.40419-442.115105-496.306946-5.870783-17.838148 4.064388-36.805292 21.676737-42.676075 17.838148-5.870783 36.805292 4.064388 42.676075 21.676737 1.128997 3.38699 112.222271 335.537817 403.503418 454.534068a33.915061 33.915061 0 0 1-12.870563 65.256009z" fill="#919191" p-id="17587"></path></svg>