<?xml version="1.0" standalone="no"?><!DOCTYPE svg PUBLIC "-//W3C//DTD SVG 1.1//EN" "http://www.w3.org/Graphics/SVG/1.1/DTD/svg11.dtd"><svg t="1742374657310" class="icon" viewBox="0 0 1024 1024" version="1.1" xmlns="http://www.w3.org/2000/svg" p-id="19009" xmlns:xlink="http://www.w3.org/1999/xlink" width="200" height="200"><path d="M602.248761 595.095516s158.135001-168.714545 205.111844-124.90793a301.785212 301.785212 0 0 1-79.177539 242.470855 301.878303 301.878303 0 0 1-236.697335 95.899484c-47.532849-44.325099 110.76303-213.462408 110.76303-213.462409zM231.201645 623.223749c71.204553-14.342278 218.384072-171.422254 218.384071-171.422254S594.980335 293.905645 604.074683 223.002378a299.923394 299.923394 0 0 1 114.151523 66.840933c33.746167 31.46881 58.700032 68.931027 74.697654 109.263774-71.322409 12.853446-217.057579 170.113513-217.057579 170.113513s-147.492851 158.166718-155.770975 229.809911a298.402909 298.402909 0 0 1-114.392736-66.832509c-33.689432-31.415903-58.564633-68.82598-74.500925-108.974251zM216.447183 551.846972a301.909333 301.909333 0 0 1 79.253278-242.188084c63.403197-67.991604 150.580025-99.939792 236.655776-95.832166 46.976843 43.806615-109.377366 212.590703-109.377366 212.590703s-159.782553 169.002607-206.521107 125.4182zM251.439256 268.172504c-134.170984 143.880765-126.286904 369.336933 17.571167 503.486754 143.880765 134.170984 369.34828 126.297485 503.508683-17.571933C906.69009 610.20656 898.795428 384.761739 754.92601 250.601337 611.033898 116.419771 385.61024 124.291739 251.439256 268.172504z" fill="#444444" p-id="19010"></path><path d="M216.447183 551.846972a301.909333 301.909333 0 0 1 79.232116-242.16539c63.413778-68.002952 150.590606-99.951139 236.666357-95.843513 46.976843 43.806615-109.377366 212.590703-109.377366 212.590703s-159.782553 169.002607-206.521107 125.4182z" fill="#F8D02D" p-id="19011"></path><path d="M602.248761 595.095516s158.135001-168.714545 205.111844-124.90793a301.785212 301.785212 0 0 1-79.177539 242.470855 301.878303 301.878303 0 0 1-236.697335 95.899484c-47.532849-44.325099 110.76303-213.462408 110.76303-213.462409z" fill="#F8D02D" p-id="19012"></path></svg>