<?xml version="1.0" standalone="no"?><!DOCTYPE svg PUBLIC "-//W3C//DTD SVG 1.1//EN" "http://www.w3.org/Graphics/SVG/1.1/DTD/svg11.dtd"><svg t="1742372822716" class="icon" viewBox="0 0 1024 1024" version="1.1" xmlns="http://www.w3.org/2000/svg" p-id="13528" xmlns:xlink="http://www.w3.org/1999/xlink" width="200" height="200"><path d="M393.6 989.6H392l-311.2-24c-22.4-1.6-43.2-12-57.6-29.6-14.4-16.8-21.6-39.2-20-61.6 1.6-22.4 12-43.2 29.6-57.6 16.8-14.4 39.2-21.6 61.6-20l237.6 18.4 554.4-708c5.6-6.4 15.2-8 21.6-3.2l45.6 33.6c7.2 4.8 8.8 14.4 4 21.6L406.4 982.4c-2.4 4.8-8 7.2-12.8 7.2z m-306.4-160.8c-12.8 0-24 4-33.6 12.8-10.4 8.8-16.8 21.6-18.4 36-2.4 28.8 19.2 54.4 48 56l302.4 24 536.8-802.4-20.8-15.2-550.4 702.4c-3.2 4-8.8 6.4-13.6 6.4l-245.6-19.2c-2.4-0.8-4-0.8-4.8-0.8z" fill="#303C42" p-id="13529"></path><path d="M971.2 180c-8.8 0-17.6-2.4-24.8-8l-68.8-49.6c-19.2-13.6-23.2-40.8-9.6-59.2l8-10.4c13.6-19.2 40.8-23.2 59.2-9.6l68.8 49.6c19.2 13.6 23.2 40.8 9.6 59.2l-8 10.4c-8.8 11.2-21.6 17.6-34.4 17.6z m-6.4-34.4c4.8 3.2 11.2 2.4 15.2-2.4l8-10.4c1.6-2.4 2.4-4.8 1.6-8-0.8-3.2-1.6-5.6-4-7.2l-68.8-49.6c-4.8-3.2-11.2-2.4-15.2 2.4l-8 10.4c-1.6 2.4-2.4 4.8-1.6 8 0.8 3.2 1.6 5.6 4 7.2l68.8 49.6zM826.4 334.4c-1.6 0-3.2-0.8-4.8-1.6l-58.4-42.4c-3.2-2.4-4-7.2-1.6-11.2 2.4-3.2 7.2-4 11.2-1.6l58.4 42.4c3.2 2.4 4 7.2 1.6 11.2-1.6 1.6-4 3.2-6.4 3.2zM737.6 472c-1.6 0-3.2-0.8-4.8-1.6l-70.4-51.2c-3.2-2.4-4-7.2-1.6-11.2 2.4-3.2 7.2-4 11.2-1.6l70.4 51.2c3.2 2.4 4 7.2 1.6 11.2-1.6 2.4-4 3.2-6.4 3.2zM118.4 768h-8C56 763.2 15.2 715.2 20 661.6c2.4-26.4 14.4-50.4 34.4-67.2 20-16.8 45.6-25.6 72-23.2 54.4 4 95.2 52 90.4 106.4-2.4 26.4-14.4 50.4-34.4 67.2-18.4 14.4-40.8 23.2-64 23.2z m-0.8-165.6c-16 0-31.2 5.6-43.2 16-13.6 11.2-21.6 28-23.2 45.6-3.2 36.8 24.8 68.8 61.6 72 17.6 1.6 35.2-4 48.8-16 13.6-11.2 21.6-28 23.2-45.6 3.2-36.8-24.8-68.8-61.6-72h-5.6z" fill="#303C42" p-id="13530"></path></svg>