<?xml version="1.0" standalone="no"?><!DOCTYPE svg PUBLIC "-//W3C//DTD SVG 1.1//EN" "http://www.w3.org/Graphics/SVG/1.1/DTD/svg11.dtd"><svg t="1742374517449" class="icon" viewBox="0 0 1024 1024" version="1.1" xmlns="http://www.w3.org/2000/svg" p-id="17438" xmlns:xlink="http://www.w3.org/1999/xlink" width="200" height="200"><path d="M428 1020c-2.4 0-4.8 0-7.2-0.8-31.2-4-55.2-31.2-55.2-64V365.6H172c-17.6 0-34.4-8-46.4-20.8-12-13.6-17.6-31.2-15.2-48.8 4-31.2 31.2-55.2 64-55.2h676.8c32.8 0 60 23.2 64 55.2 2.4 17.6-3.2 36-15.2 48.8-12 13.6-28.8 20.8-46.4 20.8H658.4v191.2c0 18.4 9.6 35.2 24.8 44.8L784 474.4c11.2-13.6 27.2-22.4 44.8-23.2 17.6-0.8 34.4 4.8 47.2 17.6 23.2 21.6 24.8 59.2 4.8 84.8L752 715.2c-12 15.2-29.6 24-48.8 24-7.2 0-14.4-1.6-21.6-4l-142.4-52c-16-5.6-32-9.6-48.8-10.4v284.8c0 17.6-8 34.4-20.8 46.4-11.2 10.4-26.4 16-41.6 16zM173.6 272.8c-16 0-30.4 12-32 26.4-0.8 8.8 1.6 17.6 7.2 24 5.6 6.4 14.4 10.4 22.4 10.4h210.4c8.8 0 16 7.2 16 16v606.4c0 16 12 30.4 26.4 32 8.8 0.8 17.6-1.6 24-7.2 6.4-5.6 10.4-14.4 10.4-22.4V656c0-8.8 7.2-16 16-16 25.6 0 51.2 4.8 76 13.6l142.4 52c12 4.8 26.4 0 34.4-9.6l128-162.4c10.4-12.8 9.6-31.2-1.6-42.4-6.4-6.4-14.4-8.8-23.2-8.8-8.8 0.8-16.8 4.8-21.6 11.2L700 631.2c-4 5.6-11.2 7.2-18.4 4.8-33.6-12-56-44-56-80V349.6c0-8.8 7.2-16 16-16h210.4c8.8 0 16.8-4 22.4-10.4 5.6-6.4 8.8-15.2 7.2-24-1.6-15.2-16-26.4-32-26.4H173.6zM512 224c-60.8 0-109.6-49.6-109.6-109.6S451.2 4 512 4s109.6 49.6 109.6 109.6S572.8 224 512 224z m0-188c-43.2 0-77.6 35.2-77.6 77.6 0 43.2 35.2 77.6 77.6 77.6 43.2 0 77.6-35.2 77.6-77.6 0-42.4-34.4-77.6-77.6-77.6z" fill="#303C42" p-id="17439"></path></svg>