<?xml version="1.0" standalone="no"?><!DOCTYPE svg PUBLIC "-//W3C//DTD SVG 1.1//EN" "http://www.w3.org/Graphics/SVG/1.1/DTD/svg11.dtd"><svg t="1742372826472" class="icon" viewBox="0 0 1024 1024" version="1.1" xmlns="http://www.w3.org/2000/svg" p-id="13676" xmlns:xlink="http://www.w3.org/1999/xlink" width="200" height="200"><path d="M866.4 624h-568c-8.8 0-16-7.2-16-16V504.8c0-8.8 7.2-16 16-16h568c8.8 0 16 7.2 16 16V608c0 8.8-7.2 16-16 16z m-552-32h536v-71.2h-536V592z" fill="#303C42" p-id="13677"></path><path d="M724 1017.6h-3.2c-8.8-1.6-14.4-10.4-12-19.2 44.8-208 142.4-396 143.2-398.4 4-8 13.6-11.2 21.6-6.4 8 4 11.2 13.6 6.4 21.6-0.8 1.6-96 186.4-140.8 390.4-0.8 7.2-8 12-15.2 12zM440 1017.6c-7.2 0-13.6-4.8-16-12.8-44-204-140-388-140.8-390.4-4-8-0.8-17.6 6.4-21.6 8-4 17.6-0.8 21.6 6.4 0.8 1.6 98.4 190.4 143.2 398.4 1.6 8.8-4 16.8-12 19.2 0 0.8-0.8 0.8-2.4 0.8z" fill="#303C42" p-id="13678"></path><path d="M814.4 736.8H349.6c-8.8 0-16-7.2-16-16s7.2-16 16-16h464.8c8.8 0 16 7.2 16 16s-7.2 16-16 16zM767.2 864H397.6c-8.8 0-16-7.2-16-16s7.2-16 16-16h369.6c8.8 0 16 7.2 16 16s-7.2 16-16 16z" fill="#303C42" p-id="13679"></path><path d="M525.6 995.2c-8 0-15.2-6.4-16-15.2l-22.4-371.2c-0.8-8.8 5.6-16.8 14.4-16.8 8.8-0.8 16.8 6.4 16.8 15.2l22.4 371.2c0.8 8.8-6.4 16.8-15.2 16.8zM639.2 995.2h-0.8c-8.8-0.8-15.2-8-15.2-16.8l22.4-371.2c0.8-8.8 8-16 16.8-15.2 8.8 0.8 15.2 8 15.2 16.8l-22.4 371.2c-0.8 8.8-8 15.2-16 15.2zM298.4 520.8H184c-8.8 0-16-7.2-16-16s7.2-16 16-16h113.6c8.8 0 16 7.2 16 16 0.8 8.8-6.4 16-15.2 16z" fill="#303C42" p-id="13680"></path><path d="M184 1020H75.2c-8.8 0-16-7.2-16-16V20c0-8.8 7.2-16 16-16H184c8.8 0 16 7.2 16 16v984c0 8.8-7.2 16-16 16z m-92.8-32H168V36h-76.8v952zM795.2 360c-93.6 0-169.6-76-169.6-169.6S701.6 20.8 795.2 20.8s169.6 76 169.6 169.6S888.8 360 795.2 360z m0-307.2c-76 0-137.6 61.6-137.6 137.6S719.2 328 795.2 328s137.6-61.6 137.6-137.6-61.6-137.6-137.6-137.6z" fill="#303C42" p-id="13681"></path><path d="M716 190.4c-8 0-15.2-1.6-22.4-4-8-3.2-15.2-8-19.2-14.4-5.6-8-7.2-17.6-8.8-26.4-2.4-14.4-3.2-29.6-4-44 0-4.8 3.2-8 8-8 4 0 8 3.2 8 8 0.8 14.4 1.6 28.8 4 42.4 0.8 7.2 2.4 14.4 5.6 19.2 3.2 4.8 8 7.2 12 8.8 18.4 7.2 40.8 1.6 69.6-16.8 11.2-7.2 22.4-15.2 32.8-23.2 14.4-10.4 28.8-20.8 44-30.4 20.8-12 40.8-20.8 59.2-24 4-0.8 8.8 1.6 9.6 6.4 0.8 4-1.6 8.8-6.4 9.6-16.8 3.2-35.2 11.2-54.4 22.4-14.4 8.8-28.8 19.2-42.4 29.6l-33.6 24c-23.2 13.6-43.2 20.8-61.6 20.8zM859.2 338.4h-1.6c-2.4-0.8-5.6-0.8-8-1.6-24.8-5.6-47.2-18.4-68.8-30.4-12-6.4-24.8-13.6-37.6-19.2-7.2-3.2-15.2-6.4-24-7.2-12.8-0.8-29.6 4-44.8 9.6-4 1.6-8.8-0.8-10.4-4.8-1.6-4 0.8-8.8 4.8-10.4 16.8-5.6 35.2-12 51.2-10.4 11.2 0.8 20.8 4.8 28.8 8 13.6 5.6 26.4 12.8 39.2 20 21.6 12 42.4 23.2 64.8 28.8 2.4 0.8 4.8 0.8 7.2 1.6 4 0.8 7.2 4.8 6.4 9.6 0 3.2-3.2 6.4-7.2 6.4zM776 232h-4.8c-40 0-88.8-5.6-129.6-14.4-4-0.8-7.2-4.8-6.4-9.6 0.8-4 4.8-7.2 9.6-6.4 40 8.8 87.2 13.6 126.4 14.4h35.2c46.4-0.8 93.6-1.6 139.2-8 4-0.8 8.8 2.4 8.8 7.2 0.8 4-2.4 8.8-6.4 8.8-46.4 6.4-94.4 7.2-140.8 8.8-11.2-1.6-21.6-0.8-31.2-0.8z" fill="#303C42" p-id="13682"></path></svg>