<?xml version="1.0" standalone="no"?><!DOCTYPE svg PUBLIC "-//W3C//DTD SVG 1.1//EN" "http://www.w3.org/Graphics/SVG/1.1/DTD/svg11.dtd"><svg t="1742372799448" class="icon" viewBox="0 0 1024 1024" version="1.1" xmlns="http://www.w3.org/2000/svg" p-id="12780" xmlns:xlink="http://www.w3.org/1999/xlink" width="200" height="200"><path d="M353.6 796.8H106.4c-8.8 0-16-7.2-16-16V562.4c0-8.8 7.2-16 16-16s16 7.2 16 16v203.2h214.4V570.4c0-8.8 7.2-16 16-16s16 7.2 16 16v211.2c0.8 8-6.4 15.2-15.2 15.2zM917.6 1020H670.4c-8.8 0-16-7.2-16-16V792.8c0-8.8 7.2-16 16-16s16 7.2 16 16v195.2h214.4V784.8c0-8.8 7.2-16 16-16s16 7.2 16 16v219.2c0.8 8.8-6.4 16-15.2 16z" fill="#303C42" p-id="12781"></path><path d="M234.4 614.4c-24.8 0-49.6-3.2-74.4-11.2-38.4-11.2-68.8-32.8-89.6-61.6-13.6-19.2-23.2-40-29.6-62.4-40.8-147.2-23.2-285.6 48-379.2 10.4-13.6 24-25.6 36-35.2 16.8-13.6 35.2-24 56-32.8C238.4 9.6 289.6 0 336 5.6c66.4 7.2 139.2 49.6 152 129.6 3.2 19.2 1.6 39.2-5.6 58.4-22.4 63.2-74.4 75.2-120.8 84.8-29.6 6.4-57.6 12.8-76 31.2-9.6 9.6-2.4 19.2-0.8 22.4 4.8 5.6 13.6 10.4 24 4.8l1.6-0.8c3.2-1.6 5.6-4 8.8-5.6 18.4-12 38.4-25.6 63.2-26.4h0.8c27.2 0 53.6 16.8 68 44 11.2 20.8 15.2 46.4 11.2 76-8 65.6-50.4 127.2-110.4 160.8-34.4 19.2-76 29.6-117.6 29.6z m76-578.4c-35.2 0-74.4 8.8-118.4 26.4-18.4 7.2-33.6 16-48 28-10.4 8-21.6 18.4-30.4 28.8-64.8 86.4-80 214.4-41.6 352 4.8 19.2 13.6 36.8 24.8 52.8 16 23.2 40.8 40 72 49.6 56.8 16.8 120 10.4 168.8-16.8C388.8 528 424.8 475.2 432 420c2.4-23.2 0-42.4-8-57.6-8.8-16-24.8-27.2-40.8-27.2-15.2 0-30.4 10.4-46.4 20.8-3.2 2.4-6.4 4-8.8 6.4l-1.6 0.8c-21.6 13.6-48.8 8.8-65.6-11.2-16-20-15.2-46.4 1.6-64l0.8-0.8c24.8-25.6 59.2-32.8 92-40 43.2-9.6 80.8-17.6 96.8-64 4.8-13.6 6.4-28.8 4-42.4-9.6-64-68.8-97.6-124-104-6.4-0.8-13.6-0.8-21.6-0.8zM789.6 837.6c-42.4 0-83.2-10.4-119.2-30.4-60-34.4-102.4-96-109.6-161.6-3.2-29.6 0-55.2 11.2-76 14.4-27.2 41.6-44 68.8-44 24.8 0 45.6 14.4 63.2 26.4 3.2 1.6 5.6 4 8.8 5.6l1.6 0.8c9.6 6.4 19.2 1.6 24-4.8 2.4-2.4 8.8-12 0-21.6-18.4-19.2-46.4-25.6-76-32C616 490.4 564 479.2 541.6 416c-6.4-18.4-8.8-39.2-5.6-58.4 12.8-79.2 85.6-122.4 152-129.6 46.4-4.8 96.8 4 155.2 28 20.8 8.8 39.2 19.2 56 32.8 12 9.6 25.6 20.8 36 35.2 71.2 93.6 88 232 48 379.2-6.4 22.4-16 43.2-29.6 62.4-20 28.8-51.2 50.4-89.6 61.6-24 6.4-49.6 10.4-74.4 10.4zM640 557.6c-15.2 0-31.2 10.4-40 27.2-8 15.2-10.4 34.4-8 57.6 6.4 55.2 42.4 108 94.4 136.8 48.8 27.2 112 33.6 168.8 16.8 31.2-9.6 56-26.4 72-49.6 11.2-16 19.2-33.6 24.8-52.8 37.6-137.6 22.4-265.6-42.4-351.2-8-11.2-20-20.8-30.4-28.8-15.2-12-30.4-20.8-48-28-52.8-21.6-99.2-29.6-140-25.6-54.4 5.6-114.4 40-124 102.4-2.4 14.4-0.8 28.8 4 42.4 16 46.4 53.6 54.4 96.8 64 32.8 7.2 67.2 14.4 92 40l0.8 0.8c16.8 18.4 17.6 44.8 1.6 64-16.8 20.8-44 24.8-65.6 11.2H696c-3.2-2.4-6.4-4-9.6-6.4-15.2-10.4-30.4-20-46.4-20.8 0.8 0 0 0 0 0z" fill="#303C42" p-id="12782"></path><path d="M906.4 689.6h-2.4c-4-0.8-6.4-5.6-5.6-9.6 16-56.8 44-200.8-32.8-302.4-2.4-3.2-1.6-8.8 1.6-11.2 3.2-2.4 8.8-1.6 11.2 1.6 81.6 107.2 52 256.8 36 316.8-1.6 2.4-4.8 4.8-8 4.8z" fill="#303C42" p-id="12783"></path></svg>