<?xml version="1.0" standalone="no"?><!DOCTYPE svg PUBLIC "-//W3C//DTD SVG 1.1//EN" "http://www.w3.org/Graphics/SVG/1.1/DTD/svg11.dtd"><svg t="1742372637145" class="icon" viewBox="0 0 1024 1024" version="1.1" xmlns="http://www.w3.org/2000/svg" p-id="4883" xmlns:xlink="http://www.w3.org/1999/xlink" width="200" height="200"><path d="M511.869285 512.122344m-511.507375 0a511.507375 511.507375 0 1 0 1023.014751 0 511.507375 511.507375 0 1 0-1023.014751 0Z" fill="#040000" p-id="4884"></path><path d="M511.869285 1023.991338c-69.101686 0-136.136154-13.533641-199.242618-40.224867-60.953352-25.781044-115.694221-62.688545-162.703953-109.697555-47.00901-47.00901-83.916512-101.74988-109.697556-162.703232-26.690505-63.106464-40.224145-130.141654-40.224145-199.24334 0-69.100964 13.533641-136.136154 40.224867-199.242618 25.781044-60.95263 62.688545-115.694221 109.697555-162.703232 47.00901-47.00901 101.750602-83.916512 162.703954-109.697555C375.733131 13.787712 442.767599 0.254072 511.869285 0.254072c69.102408 0 136.136154 13.533641 199.242618 40.224867 60.953352 25.781044 115.694221 62.688545 162.70251 109.697555 47.009732 47.00901 83.917233 101.750602 109.698278 162.703232 26.691226 63.105742 40.224867 130.140932 40.224867 199.242618 0 69.101686-13.533641 136.136876-40.224867 199.242618-25.781766 60.953352-62.689267 115.694221-109.698278 162.703232-47.008289 47.009732-101.749158 83.917233-162.70251 109.697556-63.106464 26.691948-130.14021 40.225589-199.242618 40.225588z m0-1023.015472C230.022378 0.975866 0.722085 230.275436 0.722085 512.122344c0 281.84763 229.299571 511.1472 511.1472 511.1472 281.846908 0 511.146478-229.299571 511.146479-511.1472 0-281.846908-229.299571-511.146478-511.146479-511.146478z" p-id="4885"></path><path d="M859.343162 474.233925c-2.751479-11.90816-14.203466-32.706659-59.918299-37.83645-5.864578-0.645284-11.451986-1.189517-16.86039-1.740968-38.020508-3.850772-54.237057-6.597199-62.298054-18.323467-11.729155-17.133228-25.654008-39.946976-32.343597-51.033013 0-12.458889-6.321473-26.842081-18.506802-41.86767-2.013084-2.47431-4.120723-4.947899-6.410976-7.420766 4.486673 0.732621 9.161733 1.006903 13.831742 1.006903 50.117056 0 90.977102-40.767656 90.977102-90.973493 0-50.206559-40.953879-90.793766-91.066605-90.793767-50.116334 0-90.977824 40.771987-90.977824 90.976381 0 14.749142 3.574325 28.765663 9.807018 41.133606-23.271366-10.990038-47.370629-16.488666-71.648898-16.488666-18.595583 0-37.83645 3.297156-56.981319 9.711018-36.558153 12.275553-134.403126 56.528032-159.691185 92.897797-4.487394 6.414585-13.925575 23.364477-4.854066 40.67671 7.326933 14.02013 23.177532 21.714456 44.614098 21.714456 21.074224 0 45.352493-7.605545 66.789058-20.97967 28.035929-17.406788 60.925202-29.592839 79.982011-29.592839 1.651465 0 3.024318 0.093833 4.124332 0.277169-1.28335 5.131235-5.313849 16.21655-18.416578 36.003093-14.839366 22.537301-33.896176 45.079655-45.348884 56.530919-11.451986 11.451986-22.538023 26.751857-30.235958 41.957174-6.321473 12.461054-13.649128 30.970744-11.998384 48.193474 0.362341 3.573603 1.006181 6.960983 2.013084 10.167915-8.884564 9.893633-21.348506 24.002543-35.457417 40.858602-0.729734 0.829341-8.060997 8.245055-48.098919 8.245055-13.742961 0-28.308767-0.727569-42.507181-1.554023-13.192954-0.736952-25.655452-1.373574-36.740766-1.373574-12.736058 0-22.080405 0.916679-29.408782 2.838816-23.271366 6.233414-38.114341 26.384464-37.931005 51.214183 0.093833 11.727712 3.574325 23.548535 9.895798 33.347613 7.23743 11.451986 17.4999 19.059697 29.685229 22.081127 20.430384 5.1334 92.167341 13.011062 145.671055 13.011061 25.927568 0 45.440552-1.836244 58.082776-5.497906 21.80468-6.323639 44.803207-28.404044 68.34669-65.599541 7.516043-11.910326 13.925575-23.362312 18.783249-32.524767 7.422209 4.033386 13.927018 7.696491 19.787266 11.174818 22.720637 13.566121 29.410225 20.614441 30.9693 22.727132 2.475032 20.974617-14.476304 90.786548-37.107438 127.711373-17.037951 27.760925-20.520608 60.557809-8.79434 81.630589 7.515321 13.373402 20.430384 21.074224 35.363583 21.074225 8.888173 0 18.049907-2.751479 27.394976-8.067494 41.500999-23.72754 70.269549-79.704843 95.648554-129.176614l0.182614-0.364506c1.834079-3.664549 3.847163-7.332707 5.771466-11.182036 12.096548-23.268479 25.838788-49.652942 31.60881-73.841708 10.901979-45.898169-12.185329-66.69739-26.934471-74.941723-22.997084-12.917228-76.86747-43.24341-83.005607-69.354314-1.189517-5.039567-0.182614-9.436737 3.297156-14.56725 6.781978-9.984579 15.299149-21.714456 25.92829-35.728811 10.901979 18.323467 27.4852 42.328897 46.63079 56.433476 13.927018 10.262469 36.097648 15.487537 66.056437 15.487538 41.228161 0 88.960409-9.805574 108.750561-22.266628 18.969472-11.817214 27.581199-28.673995 23.5507-45.990559zM629.749821 226.13306c0-25.926846 21.069894-46.998184 46.998184-46.998184 25.927568 0 46.998905 21.071337 46.998905 46.998184 0 25.929012-21.071337 46.998184-46.998905 46.998183-25.92829 0-46.998184-21.069172-46.998184-46.998183zM542.251767 531.128628c10.630584 44.891266 71.46484 79.158444 104.261724 97.571414 5.406238 3.023596 10.259582 8.703394 5.406238 27.668535-4.030499 15.849156-13.558903 35.637865-27.484478 62.485-2.018858 3.847163-4.03122 7.69216-5.865299 11.358874l-0.183336 0.366672c-22.626804 43.972422-48.188422 93.818084-78.331268 111.040814-1.372131 0.731899-2.472867 1.284072-3.389546 1.643526-1.650743-6.041417-0.734065-19.87749 8.611726-35.176639 12.458889-20.337272 24.644218-50.575395 33.43928-83.005607 5.224346-19.426368 13.374846-55.337072 9.161012-77.509867-2.563091-13.279569-13.281013-25.743511-34.995468-40.311482-17.316564-11.721937-41.961504-25.285893-85.113247-46.814126-9.617185-4.856231-18.690138-9.342904-25.467063-13.006731l-6.781978-3.943883c-0.456174-11.176983 12.091496-36.829547 29.68595-54.419672 13.558903-13.558903 34.719021-38.663626 51.396076-64.042631 24.372102-37.196219 31.148305-62.113997 21.987294-80.531296-10.168636-20.24777-32.433099-23.272088-44.707931-23.272088-27.668536 0-67.155729 13.926297-103.163153 36.280262-13.742239 8.522946-28.674717 13.653458-41.227439 14.29369 10.172967-9.435293 29.042832-21.803958 53.874716-34.99619 26.201128-13.925575 57.443989-27.85115 77.691037-34.628797 14.655309-4.948621 29.130891-7.422209 42.966963-7.42221 23.638759 0 47.36702 7.327654 70.270271 21.892739 22.443468 14.204187 34.906688 26.846412 41.316942 34.906688 4.124332 5.225068 6.320752 9.072953 7.332707 11.451986l-1.650743 2.384808c-5.315292 6.960983-14.109632 17.956795-21.898514 27.668536l-0.089502 0.090224c-20.430384 25.471394-48.375367 60.378804-67.428567 88.687571-10.445805 15.482485-13.653458 32.066428-9.624404 49.28988z m-88.225623 74.113825c-4.12361 7.788881-9.527683 17.413284-15.758932 27.212362-24.734442 38.937186-39.483584 45.714834-43.518413 46.910846-4.854788 1.371409-17.222731 3.750442-45.808667 3.750443-51.853693 0-118.553248-7.597605-134.952412-11.6346-2.106917-0.543511-6.22764-6.041417-6.22764-13.190067-0.093833-6.323639 2.74787-7.607711 5.404795-8.336723 1.923581-0.548564 6.781978-1.377905 17.956795-1.377905 9.894354 0 21.803958 0.646728 34.450514 1.284072 14.656031 0.822845 29.864955 1.559075 44.797433 1.559076 28.76855 0 64.132133-2.749314 81.905593-24.094933 13.102008-15.665821 24.831885-29.043554 33.533113-38.660018l28.217821 16.577447z m209.897022-195.051881c6.226918 9.989631 13.464348 21.164449 20.153215 30.970022 20.340881 29.775453 54.513504 33.162111 94.184034 37.197663 5.31457 0.544955 10.719365 1.096405 16.306773 1.739524 7.971495 0.9174 13.374124 2.290253 16.949893 3.569993-10.901979 6.325804-48.284421 15.120144-84.656351 15.120145-22.538023 0-35.637143-3.75766-39.944811-6.871481-17.132506-12.735336-33.349056-39.853143-41.410053-54.9704l18.4173-26.755466z m0 0" fill="#FFFFFF" p-id="4886"></path></svg>