<?xml version="1.0" standalone="no"?><!DOCTYPE svg PUBLIC "-//W3C//DTD SVG 1.1//EN" "http://www.w3.org/Graphics/SVG/1.1/DTD/svg11.dtd"><svg t="1742374448779" class="icon" viewBox="0 0 1024 1024" version="1.1" xmlns="http://www.w3.org/2000/svg" p-id="15515" xmlns:xlink="http://www.w3.org/1999/xlink" width="200" height="200"><path d="M924 972.8c-1.6 0-3.2 0-4.8-0.8L272.8 758.4c-4.8-1.6-8.8-5.6-10.4-10.4L52 104c-2.4-8 1.6-17.6 10.4-20 8-2.4 17.6 1.6 20 10.4l208 636 639.2 211.2c8 2.4 12.8 12 10.4 20-3.2 7.2-9.6 11.2-16 11.2z" fill="#303C42" p-id="15516"></path><path d="M279.2 760.8c-4 0-8-1.6-11.2-4.8-6.4-6.4-6.4-16 0-22.4l603.2-603.2c6.4-6.4 16-6.4 22.4 0 6.4 6.4 6.4 16 0 22.4L290.4 756c-3.2 3.2-7.2 4.8-11.2 4.8zM964 1020c-14.4 0-28.8-5.6-39.2-16-21.6-21.6-21.6-57.6 0-79.2s57.6-21.6 79.2 0 21.6 57.6 0 79.2c-11.2 10.4-25.6 16-40 16z m0-80c-6.4 0-12.8 2.4-16.8 7.2-4.8 4.8-7.2 10.4-7.2 16.8s2.4 12.8 7.2 16.8c8.8 8.8 24.8 8.8 33.6 0 4.8-4.8 7.2-10.4 7.2-16.8s-2.4-12.8-7.2-16.8c-4-4.8-10.4-7.2-16.8-7.2z" fill="#303C42" p-id="15517"></path><path d="M980 44.8l-40 138.4-26.4-72-72-26.4 138.4-40m0-32h-1.6c-2.4 0-5.6 0.8-8 1.6L832 53.6c-13.6 4-22.4 16-23.2 29.6-0.8 13.6 8 26.4 20.8 31.2L888 136l21.6 58.4c4.8 12.8 16.8 20.8 30.4 20.8h0.8c13.6-0.8 25.6-9.6 29.6-23.2l39.2-137.6c0.8-3.2 1.6-6.4 1.6-10.4 0.8-16.8-13.6-31.2-31.2-31.2zM60 116c-14.4 0-28.8-5.6-39.2-16-21.6-21.6-21.6-57.6 0-79.2s57.6-21.6 79.2 0 21.6 57.6 0 79.2c-11.2 10.4-25.6 16-40 16z m0-80c-6.4 0-12.8 2.4-16.8 7.2-4.8 4-7.2 10.4-7.2 16.8s2.4 12.8 7.2 16.8c8.8 8.8 24.8 8.8 33.6 0 4.8-4.8 7.2-10.4 7.2-16.8s-2.4-12.8-7.2-16.8c-4.8-4.8-10.4-7.2-16.8-7.2z" fill="#303C42" p-id="15518"></path><path d="M948 943.2c-3.2 0-6.4-0.8-9.6-3.2-4.8-3.2-7.2-8.8-6.4-14.4 0.8-8 0.8-15.2 0.8-22.4 1.6-19.2 0.8-43.2-0.8-70.4v-0.8c-2.4-31.2-5.6-60.8-11.2-89.6l-4.8-25.6c-0.8-4.8-2.4-10.4-4-15.2l-2.4-9.6c-0.8-3.2-1.6-7.2-2.4-10.4-1.6-4.8-2.4-10.4-4-14.4l-8.8-27.2c-1.6-6.4-4-12.8-6.4-19.2-0.8-2.4-2.4-4.8-3.2-8-1.6-3.2-2.4-6.4-4-9.6-2.4-5.6-4-11.2-6.4-16.8-2.4-5.6-5.6-12-8-18.4-5.6-12-11.2-24.8-17.6-36 0 0 0-0.8-0.8-0.8-8-16-16.8-31.2-26.4-47.2l-4-7.2c-3.2-5.6-6.4-11.2-10.4-16-2.4-3.2-4.8-6.4-7.2-10.4-1.6-2.4-3.2-4-4.8-6.4-4-6.4-8.8-12.8-13.6-19.2l-20-26.4c-3.2-4-7.2-8.8-11.2-12.8-3.2-4-6.4-8-10.4-12l-10.4-12.8c-1.6-2.4-4-4.8-6.4-7.2L698.4 328l-29.6-28.8c-2.4-2.4-5.6-4.8-8-7.2l-12-9.6-12-9.6c-4-3.2-8-7.2-12.8-10.4l-25.6-19.2c-6.4-4.8-12.8-8.8-19.2-13.6l-7.2-4.8c-3.2-2.4-6.4-4-9.6-6.4-5.6-4-10.4-7.2-16-10.4l-7.2-4c-16-9.6-31.2-18.4-47.2-26.4 0 0-0.8 0-0.8-0.8-12-6.4-24-12-36-17.6-6.4-2.4-12-5.6-18.4-8-4.8-2.4-10.4-4.8-16.8-6.4-3.2-1.6-7.2-2.4-10.4-4-2.4-0.8-4.8-1.6-7.2-3.2-6.4-2.4-12.8-4.8-18.4-6.4l-27.2-8.8c-4.8-1.6-9.6-3.2-15.2-4-4-0.8-7.2-1.6-11.2-3.2-2.4-0.8-5.6-1.6-8.8-2.4-5.6-1.6-10.4-3.2-15.2-4l-25.6-4.8c-28.8-5.6-58.4-9.6-89.6-11.2h-1.6c-26.4-0.8-49.6-1.6-68-0.8-8 0-15.2 0.8-23.2 0.8-5.6 0-11.2-2.4-14.4-6.4-3.2-4.8-4-10.4-1.6-16s3.2-12.8 0.8-18.4c-1.6-4-1.6-8.8 0-12.8s5.6-7.2 9.6-8.8c6.4-1.6 12-3.2 17.6-4.8 21.6-6.4 48-11.2 77.6-15.2 5.6-0.8 11.2-0.8 16-1.6 10.4-0.8 21.6-2.4 33.6-2.4l40-0.8h0.8L320 8c7.2 0.8 13.6 1.6 20 2.4 3.2 0.8 6.4 0.8 10.4 1.6 18.4 1.6 36.8 5.6 56 9.6l6.4 1.6c8.8 1.6 17.6 4 25.6 6.4l7.2 1.6c4 0.8 7.2 2.4 11.2 3.2 7.2 1.6 14.4 3.2 22.4 5.6l5.6 2.4c20 7.2 40 13.6 60 23.2 41.6 17.6 84.8 41.6 128.8 71.2l30.4 21.6 24 19.2 21.6 18.4c3.2 3.2 6.4 5.6 8.8 8l30.4 28 0.8 0.8 31.2 33.6c3.2 3.2 5.6 6.4 8.8 9.6l18.4 22.4c5.6 7.2 12 14.4 17.6 22.4l21.6 30.4c29.6 44 53.6 87.2 71.2 129.6 8.8 19.2 16 40 23.2 59.2l2.4 5.6c2.4 7.2 4.8 15.2 6.4 22.4 0.8 4 1.6 7.2 3.2 10.4l2.4 7.2c2.4 8 4.8 16.8 6.4 26.4l1.6 6.4c4 19.2 8 37.6 9.6 56 0 3.2 0.8 6.4 1.6 9.6 0.8 6.4 1.6 13.6 2.4 20l1.6 28.8 0.8 13.6v0.8l-0.8 40c0 12-1.6 23.2-2.4 33.6-0.8 4.8-0.8 10.4-1.6 15.2-4 30.4-8.8 56.8-15.2 79.2-1.6 5.6-3.2 11.2-4.8 17.6-1.6 4-4 8-8.8 9.6-4 1.6-8.8 2.4-12.8 0-5.6-2.4-12.8-2.4-18.4 0-2.4 0.8-4.8 0.8-7.2 0.8z m16.8-35.2h2.4v-1.6-0.8c5.6-20.8 10.4-45.6 14.4-73.6 0-4.8 0.8-9.6 1.6-15.2 0.8-10.4 2.4-20 2.4-31.2l0.8-38.4-2.4-41.6c0-5.6-0.8-11.2-1.6-17.6-0.8-3.2-0.8-7.2-1.6-10.4-1.6-17.6-5.6-34.4-9.6-52.8l-1.6-6.4c-1.6-8-3.2-15.2-5.6-23.2l-2.4-7.2c-0.8-3.2-2.4-7.2-3.2-11.2-1.6-7.2-4-13.6-5.6-20l-2.4-5.6c-6.4-19.2-13.6-38.4-22.4-56.8-16.8-40.8-40-82.4-68.8-124l-21.6-29.6c-4.8-6.4-10.4-13.6-16.8-20.8l-18.4-21.6c-2.4-2.4-4.8-5.6-7.2-8l-30.4-32.8-30.4-28c-2.4-2.4-5.6-4.8-8-7.2l-21.6-17.6c-7.2-5.6-14.4-12-22.4-17.6l-29.6-20.8c-41.6-28-83.2-51.2-123.2-68-19.2-8.8-38.4-16-57.6-22.4l-5.6-2.4c-6.4-2.4-12.8-4-20-5.6-4-0.8-7.2-2.4-11.2-3.2l-7.2-1.6c-8-2.4-15.2-4-22.4-5.6l-5.6-5.6c-18.4-4-36-7.2-52.8-9.6-4-0.8-7.2-0.8-11.2-1.6-6.4 0-12-0.8-17.6-0.8l-41.6-2.4-38.4 0.8c-10.4 0-20.8 1.6-30.4 2.4-5.6 0.8-11.2 0.8-16 1.6-28 3.2-52.8 8-72.8 14.4h-0.8c-0.8 0-1.6 0-1.6 0.8v2.4h3.2c20-1.6 43.2-0.8 71.2 0.8h2.4c33.6 2.4 64 6.4 94.4 12l24 4c6.4 0.8 12 2.4 17.6 4 3.2 0.8 5.6 1.6 8.8 2.4 4 0.8 7.2 1.6 10.4 2.4 5.6 1.6 11.2 3.2 17.6 4.8l26.4 8.8c7.2 2.4 13.6 4.8 20.8 7.2 2.4 0.8 4.8 1.6 7.2 3.2 3.2 1.6 6.4 2.4 9.6 4l19.2 7.2c6.4 3.2 12 5.6 17.6 8 12.8 5.6 25.6 11.2 38.4 18.4 16.8 8 32.8 17.6 48.8 27.2l7.2 4c6.4 3.2 12 8 18.4 12 3.2 2.4 6.4 4 9.6 6.4l7.2 4.8c7.2 4.8 14.4 9.6 21.6 15.2l25.6 19.2c4.8 4 9.6 8 13.6 11.2 4 3.2 7.2 6.4 11.2 9.6l12.8 10.4c3.2 3.2 6.4 5.6 8.8 8l30.4 28.8 0.8 0.8 25.6 27.2c2.4 2.4 4.8 5.6 7.2 8l11.2 12.8 9.6 12c4 4.8 8 9.6 12 13.6l20 26.4c5.6 6.4 10.4 13.6 14.4 20.8 1.6 2.4 3.2 4.8 4 6.4 2.4 3.2 4 6.4 6.4 9.6 4 5.6 8 12 12 18.4l4 6.4c9.6 16 19.2 32 27.2 48.8 7.2 12.8 12.8 25.6 18.4 38.4 2.4 5.6 5.6 12 8 17.6 3.2 6.4 5.6 12.8 8 19.2 1.6 3.2 2.4 6.4 4 9.6 0.8 3.2 2.4 5.6 3.2 8 2.4 6.4 5.6 13.6 7.2 20.8l8.8 26.4c1.6 5.6 3.2 11.2 4.8 17.6l2.4 9.6c0.8 4 1.6 6.4 2.4 9.6 1.6 5.6 3.2 12 4 17.6l4.8 25.6c5.6 30.4 9.6 60.8 12 93.6v1.6c0.8 28 1.6 52 0.8 72.8 0.8 3.2 0.8 4 0.8 4.8z" fill="#303C42" p-id="15519"></path></svg>