<?xml version="1.0" standalone="no"?><!DOCTYPE svg PUBLIC "-//W3C//DTD SVG 1.1//EN" "http://www.w3.org/Graphics/SVG/1.1/DTD/svg11.dtd"><svg t="1742372794490" class="icon" viewBox="0 0 1024 1024" version="1.1" xmlns="http://www.w3.org/2000/svg" p-id="12630" xmlns:xlink="http://www.w3.org/1999/xlink" width="200" height="200"><path d="M756.8 1019.2c-69.6 0-136-27.2-185.6-76.8L81.6 452C-20 350.4-20 184 81.6 81.6 131.2 32 196.8 4.8 267.2 4.8c69.6 0 136 27.2 185.6 76.8l489.6 489.6c49.6 49.6 76.8 115.2 76.8 185.6s-27.2 136-76.8 185.6c-49.6 49.6-115.2 76.8-185.6 76.8zM267.2 36.8C208 36.8 148.8 59.2 104 104 14.4 194.4 14.4 340 104 429.6L594.4 920c43.2 43.2 100.8 67.2 162.4 67.2 61.6 0 119.2-24 162.4-67.2s67.2-100.8 67.2-162.4-24-119.2-67.2-162.4L429.6 104c-44.8-44.8-104-67.2-162.4-67.2z" fill="#303C42" p-id="12631"></path><path d="M287.2 566.4c-2.4 0-4-0.8-5.6-2.4L164 446.4c-1.6-1.6-2.4-3.2-2.4-5.6 0-2.4 0.8-4 2.4-5.6l52.8-52.8c3.2-3.2 8-3.2 11.2 0l118.4 118.4c1.6 1.6 2.4 3.2 2.4 5.6 0 2.4-0.8 4-2.4 5.6l-52.8 52.8c-1.6 0.8-4 1.6-6.4 1.6zM180.8 440.8l106.4 106.4 41.6-41.6-106.4-106.4-41.6 41.6zM505.6 348.8c-2.4 0-4-0.8-5.6-2.4L382.4 228c-3.2-3.2-3.2-8 0-11.2l52.8-52.8c3.2-3.2 8-3.2 11.2 0l118.4 118.4c3.2 3.2 3.2 8 0 11.2L512 346.4c-2.4 1.6-4 2.4-6.4 2.4zM399.2 222.4l106.4 106.4 41.6-41.6-106.4-106.4-41.6 41.6zM376 433.6c-2.4 0-4-0.8-5.6-2.4l-72.8-72.8c-1.6-1.6-2.4-3.2-2.4-5.6 0-2.4 0.8-4 2.4-5.6l49.6-49.6c3.2-3.2 8-3.2 11.2 0l72.8 72.8c3.2 3.2 3.2 8 0 11.2l-49.6 49.6c-1.6 1.6-4 2.4-5.6 2.4zM314.4 352l61.6 61.6 38.4-38.4-62.4-60.8-37.6 37.6z" fill="#303C42" p-id="12632"></path><path d="M388.8 347.2c-2.4 0-4-0.8-5.6-2.4-3.2-3.2-3.2-8 0-11.2l58.4-58.4c3.2-3.2 8-3.2 11.2 0 3.2 3.2 3.2 8 0 11.2l-58.4 58.4c-1.6 1.6-3.2 2.4-5.6 2.4zM281.6 455.2c-2.4 0-4-0.8-5.6-2.4-3.2-3.2-3.2-8 0-11.2l58.4-58.4c3.2-3.2 8-3.2 11.2 0 3.2 3.2 3.2 8 0 11.2l-58.4 58.4c-1.6 1.6-4 2.4-5.6 2.4zM583.2 862.4c-2.4 0-4-0.8-5.6-2.4L460 741.6c-1.6-1.6-2.4-3.2-2.4-5.6 0-2.4 0.8-4 2.4-5.6l52.8-52.8c3.2-3.2 8-3.2 11.2 0l118.4 118.4c1.6 1.6 2.4 3.2 2.4 5.6 0 2.4-0.8 4-2.4 5.6l-52.8 52.8c-2.4 1.6-4 2.4-6.4 2.4zM476.8 736l106.4 106.4 41.6-41.6-106.4-106.4-41.6 41.6zM801.6 644c-2.4 0-4-0.8-5.6-2.4L677.6 524c-3.2-3.2-3.2-8 0-11.2l52.8-52.8c3.2-3.2 8-3.2 11.2 0l118.4 118.4c3.2 3.2 3.2 8 0 11.2l-52.8 52.8c-1.6 0.8-3.2 1.6-5.6 1.6zM694.4 518.4l106.4 106.4 41.6-41.6L736 476.8l-41.6 41.6zM671.2 728.8c-2.4 0-4-0.8-5.6-2.4l-72.8-72.8c-3.2-3.2-3.2-8 0-11.2l49.6-49.6c3.2-3.2 8-3.2 11.2 0l72.8 72.8c3.2 3.2 3.2 8 0 11.2l-49.6 49.6c-0.8 1.6-3.2 2.4-5.6 2.4zM609.6 648l61.6 61.6 38.4-38.4-61.6-61.6-38.4 38.4z" fill="#303C42" p-id="12633"></path><path d="M684.8 643.2c-2.4 0-4-0.8-5.6-2.4-3.2-3.2-3.2-8 0-11.2l58.4-58.4c3.2-3.2 8-3.2 11.2 0 3.2 3.2 3.2 8 0 11.2l-58.4 58.4c-1.6 1.6-4 2.4-5.6 2.4zM576.8 750.4c-2.4 0-4-0.8-5.6-2.4-3.2-3.2-3.2-8 0-11.2l58.4-58.4c3.2-3.2 8-3.2 11.2 0 3.2 3.2 3.2 8 0 11.2l-58.4 58.4c-1.6 1.6-3.2 2.4-5.6 2.4z" fill="#303C42" p-id="12634"></path></svg>