<?xml version="1.0" standalone="no"?><!DOCTYPE svg PUBLIC "-//W3C//DTD SVG 1.1//EN" "http://www.w3.org/Graphics/SVG/1.1/DTD/svg11.dtd"><svg t="1742372819540" class="icon" viewBox="0 0 1024 1024" version="1.1" xmlns="http://www.w3.org/2000/svg" p-id="13380" xmlns:xlink="http://www.w3.org/1999/xlink" width="200" height="200"><path d="M770.4 1020c-40 0-73.6-32.8-73.6-73.6v-123.2l-80-84.8H531.2L280 997.6c-13.6 14.4-32.8 22.4-52.8 22.4-19.2 0-37.6-7.2-51.2-20.8-14.4-13.6-21.6-32-22.4-51.2 0-19.2 7.2-38.4 20.8-52l276.8-285.6V404h-224c-40 0-73.6-32.8-73.6-73.6 0-40 32.8-73.6 73.6-73.6h568.8c40 0 73.6 32.8 73.6 73.6 0 40-32.8 73.6-73.6 73.6h-78.4V632l105.6 112a72.8 72.8 0 0 1 20 50.4v152c0 40.8-32.8 73.6-72.8 73.6zM524 707.2H624c4 0 8.8 1.6 12 4.8l88.8 94.4c3.2 3.2 4 7.2 4 11.2v129.6c0 22.4 18.4 41.6 41.6 41.6 22.4 0 41.6-18.4 41.6-41.6v-152c0-10.4-4-20.8-11.2-28L689.6 649.6c-3.2-3.2-4-7.2-4-11.2V388c0-8.8 7.2-16 16-16h94.4c22.4 0 41.6-18.4 41.6-41.6 0-22.4-18.4-41.6-41.6-41.6h-568c-22.4 0-41.6 18.4-41.6 41.6 0 22.4 18.4 41.6 41.6 41.6h240c8.8 0 16 7.2 16 16V616c0 4-1.6 8-4.8 11.2l-281.6 290.4c-8 8-12 18.4-12 29.6 0 11.2 4.8 21.6 12.8 28.8 8 7.2 17.6 12 28.8 12s21.6-4.8 29.6-12.8l256-263.2c2.4-3.2 7.2-4.8 11.2-4.8zM584.8 250.4c-67.2 0-122.4-54.4-122.4-122.4S517.6 5.6 584.8 5.6 707.2 60 707.2 128s-55.2 122.4-122.4 122.4z m0-212.8c-49.6 0-90.4 40.8-90.4 90.4 0 49.6 40.8 90.4 90.4 90.4 49.6 0 90.4-40.8 90.4-90.4 0-49.6-40.8-90.4-90.4-90.4z" fill="#303C42" p-id="13381"></path><path d="M316.8 658.4c-89.6 0-162.4-72.8-162.4-162.4V166.4C154.4 76.8 227.2 4 316.8 4c8.8 0 16 7.2 16 16s-7.2 16-16 16c-72 0-130.4 58.4-130.4 130.4v328.8c0 72 58.4 130.4 130.4 130.4 8.8 0 16 7.2 16 16s-6.4 16.8-16 16.8z" fill="#303C42" p-id="13382"></path></svg>