<?xml version="1.0" standalone="no"?><!DOCTYPE svg PUBLIC "-//W3C//DTD SVG 1.1//EN" "http://www.w3.org/Graphics/SVG/1.1/DTD/svg11.dtd"><svg t="1742372831963" class="icon" viewBox="0 0 1024 1024" version="1.1" xmlns="http://www.w3.org/2000/svg" p-id="13828" xmlns:xlink="http://www.w3.org/1999/xlink" width="200" height="200"><path d="M906.4 1020h-3.2c-31.2-0.8-60.8-14.4-81.6-37.6l-124.8-136c-16.8-18.4-44-24-67.2-13.6-172.8 83.2-384 42.4-513.6-100.8-150.4-165.6-148.8-424 3.2-588C200.8 56 312 6.4 431.2 4c120-2.4 232 43.2 316.8 128 131.2 131.2 164.8 331.2 84 498.4-11.2 22.4-5.6 49.6 13.6 66.4l136 125.6c23.2 20.8 36.8 49.6 37.6 81.6 0.8 31.2-11.2 60.8-33.6 83.2-20.8 20.8-49.6 32.8-79.2 32.8zM653.6 795.2c24.8 0 48.8 10.4 66.4 29.6l124.8 136c15.2 16.8 36 26.4 58.4 27.2 22.4 0.8 44-8 60-24s24.8-37.6 24-60c-0.8-22.4-10.4-43.2-27.2-58.4L824 720c-28.8-26.4-37.6-68.8-20.8-104 75.2-154.4 43.2-340-78.4-461.6C647.2 76 543.2 33.6 432 36c-111.2 2.4-213.6 48-288.8 129.6C2.4 317.6 0.8 556.8 140 711.2c120 132 315.2 170.4 476 93.6 12-6.4 24.8-9.6 37.6-9.6z" fill="#303C42" p-id="13829"></path><path d="M352.8 859.2c-2.4 0-4-0.8-5.6-2.4-3.2-3.2-3.2-8 0-11.2l497.6-497.6c3.2-3.2 8-3.2 11.2 0 3.2 3.2 3.2 8 0 11.2l-497.6 497.6c-1.6 1.6-3.2 2.4-5.6 2.4zM188 532c-25.6 0-49.6-10.4-68-28-18.4-18.4-28-42.4-28-68s10.4-49.6 28-68c37.6-37.6 98.4-37.6 136 0 18.4 18.4 28 42.4 28 68S273.6 485.6 256 504s-41.6 28-68 28z m0-176.8c-20.8 0-40.8 8-56.8 23.2-31.2 31.2-31.2 82.4 0 113.6 15.2 15.2 35.2 23.2 56.8 23.2 21.6 0 41.6-8 56.8-23.2 31.2-31.2 31.2-82.4 0-113.6-15.2-15.2-36-23.2-56.8-23.2z" fill="#303C42" p-id="13830"></path></svg>