<?xml version="1.0" standalone="no"?><!DOCTYPE svg PUBLIC "-//W3C//DTD SVG 1.1//EN" "http://www.w3.org/Graphics/SVG/1.1/DTD/svg11.dtd"><svg t="1742374420644" class="icon" viewBox="0 0 1024 1024" version="1.1" xmlns="http://www.w3.org/2000/svg" p-id="13976" xmlns:xlink="http://www.w3.org/1999/xlink" width="200" height="200"><path d="M512 1020C232 1020 4 792 4 512S232 4 512 4 1020 232 1020 512 792 1020 512 1020z m0-984C249.6 36 36 249.6 36 512s213.6 476 476 476 476-213.6 476-476S774.4 36 512 36z" fill="#303C42" p-id="13977"></path><path d="M512 888.8c-38.4 0-69.6-31.2-69.6-69.6 0-38.4 31.2-69.6 69.6-69.6s69.6 31.2 69.6 69.6c0 38.4-31.2 69.6-69.6 69.6z m0-123.2a53.6 53.6 0 1 0 0 107.2 53.6 53.6 0 0 0 0-107.2zM450.4 308c-38.4 0-69.6-31.2-69.6-69.6 0-38.4 31.2-69.6 69.6-69.6S520 200 520 238.4c0 38.4-31.2 69.6-69.6 69.6z m0-123.2a53.6 53.6 0 1 0 0 107.2 53.6 53.6 0 0 0 0-107.2zM705.6 972.8c-1.6 0-3.2-0.8-4.8-1.6-3.2-2.4-4-8-1.6-11.2 37.6-48 57.6-106.4 57.6-167.2C756.8 642.4 634.4 520 484 520c-4.8 0-8-3.2-8-8s3.2-8 8-8c159.2 0 288.8 129.6 288.8 288.8 0 64.8-20.8 125.6-60.8 176.8-1.6 1.6-4 3.2-6.4 3.2z" fill="#303C42" p-id="13978"></path><path d="M503.2 520C344 520 214.4 390.4 214.4 231.2c0-52 13.6-103.2 40.8-147.2 2.4-4 7.2-4.8 11.2-2.4 4 2.4 4.8 7.2 2.4 11.2-24.8 41.6-38.4 90.4-38.4 139.2 0 149.6 122.4 272 272.8 272 4.8 0 8 3.2 8 8s-4 8-8 8z" fill="#303C42" p-id="13979"></path></svg>