<?xml version="1.0" standalone="no"?><!DOCTYPE svg PUBLIC "-//W3C//DTD SVG 1.1//EN" "http://www.w3.org/Graphics/SVG/1.1/DTD/svg11.dtd"><svg t="1742374455239" class="icon" viewBox="0 0 1024 1024" version="1.1" xmlns="http://www.w3.org/2000/svg" p-id="15813" xmlns:xlink="http://www.w3.org/1999/xlink" width="200" height="200"><path d="M512 367.2c-24.8 0-48.8-9.6-67.2-27.2-18.4-17.6-28.8-41.6-29.6-68-0.8-52.8 41.6-96.8 94.4-98.4h1.6c52 0 95.2 42.4 96.8 94.4 0.8 25.6-8.8 50.4-27.2 68.8-17.6 18.4-41.6 28.8-68 29.6 0.8 0.8 0 0.8-0.8 0.8z m0-160.8h-0.8c-35.2 0.8-64 30.4-63.2 65.6 0 17.6 7.2 33.6 20 45.6 12 12 28.8 18.4 45.6 18.4 17.6 0 33.6-7.2 45.6-20 12-12 18.4-28.8 18.4-45.6-1.6-36-30.4-64-65.6-64z" fill="#303C42" p-id="15814"></path><path d="M256.8 603.2c-6.4 0-12-3.2-14.4-9.6C196 492 208 376.8 224 268.8v-0.8c32-155.2 151.2-264 288-264h0.8C649.6 4 768 112 800 268v0.8c15.2 100 27.2 214.4-12.8 313.6-3.2 8-12.8 12-20.8 8.8-8-3.2-12-12.8-8.8-20.8 37.6-92 25.6-196.8 11.2-296C740 136 632 36 512.8 36H512C392 36 284.8 136 256 273.6c-15.2 104-27.2 212.8 15.2 307.2 4 8 0 17.6-8 20.8-2.4 0.8-4.8 1.6-6.4 1.6z" fill="#303C42" p-id="15815"></path><path d="M578.4 1020c-32 0-57.6-25.6-57.6-57.6v-232h-17.6v232c0 32-25.6 57.6-57.6 57.6s-57.6-25.6-57.6-57.6V579.2l-59.2 64.8c-11.2 12-26.4 18.4-42.4 18.4-14.4 0-28-5.6-38.4-15.2-11.2-10.4-17.6-24.8-18.4-40-0.8-15.2 4.8-29.6 15.2-41.6L405.6 392c10.4-12 26.4-18.4 42.4-18.4h128c16 0 31.2 6.4 42.4 18.4l160.8 175.2c10.4 11.2 16 25.6 15.2 41.6-0.8 15.2-7.2 29.6-18.4 40-10.4 9.6-24 15.2-38.4 15.2-16 0-31.2-6.4-42.4-18.4l-59.2-64.8v383.2c0 30.4-26.4 56-57.6 56zM487.2 698.4h49.6c8.8 0 16 7.2 16 16v248c0 13.6 11.2 25.6 25.6 25.6 13.6 0 25.6-11.2 25.6-25.6v-424c0-6.4 4-12.8 10.4-15.2 6.4-2.4 12.8-0.8 17.6 4l87.2 95.2c4.8 5.6 11.2 8 18.4 8 6.4 0 12.8-2.4 16.8-6.4 4.8-4.8 8-11.2 8-17.6 0-6.4-2.4-13.6-6.4-18.4L595.2 413.6c-4.8-5.6-12-8-19.2-8H448.8 448c-7.2 0-14.4 2.4-19.2 8L268 588c-4.8 4.8-7.2 11.2-6.4 18.4 0 6.4 3.2 12.8 8 17.6 9.6 8.8 26.4 8.8 36-1.6L392.8 528c4.8-4.8 11.2-6.4 17.6-4 6.4 2.4 10.4 8 10.4 15.2v424c0 13.6 11.2 25.6 25.6 25.6 13.6 0 25.6-11.2 25.6-25.6v-248c-0.8-9.6 6.4-16.8 15.2-16.8z" fill="#303C42" p-id="15816"></path></svg>