<?xml version="1.0" standalone="no"?><!DOCTYPE svg PUBLIC "-//W3C//DTD SVG 1.1//EN" "http://www.w3.org/Graphics/SVG/1.1/DTD/svg11.dtd"><svg t="1742372803153" class="icon" viewBox="0 0 1024 1024" version="1.1" xmlns="http://www.w3.org/2000/svg" p-id="12929" xmlns:xlink="http://www.w3.org/1999/xlink" width="200" height="200"><path d="M292.8 1020H95.2c-3.2 0-7.2-0.8-9.6-3.2-8-6.4-193.6-153.6 28-661.6 8-17.6 12-36.8 12-56v-4.8c0-32-10.4-62.4-29.6-86.4-17.6-22.4-27.2-50.4-27.2-78.4 0-36 15.2-69.6 41.6-93.6C136.8 12 172.8 0.8 208 4.8c59.2 6.4 105.6 54.4 110.4 112.8 3.2 31.2-5.6 62.4-24.8 87.2-20.8 28-32 58.4-32 89.6v4.8c0 19.2 4 39.2 12 56 222.4 507.2 36 655.2 28 661.6-1.6 2.4-5.6 3.2-8.8 3.2z m-192-32h185.6c23.2-23.2 152-177.6-41.6-620-9.6-21.6-14.4-44.8-14.4-68.8v-4.8c0-37.6 13.6-75.2 38.4-108.8 13.6-18.4 20-41.6 18.4-64.8-4-43.2-39.2-79.2-82.4-84-27.2-3.2-52.8 5.6-72.8 23.2s-31.2 43.2-31.2 69.6c0 21.6 7.2 41.6 20.8 58.4 23.2 28.8 36 67.2 36 106.4v4.8c0 24-4.8 47.2-14.4 68.8-193.6 441.6-65.6 596.8-42.4 620zM736.8 1020c-156 0-282.4-126.4-282.4-282.4 0-156 126.4-282.4 282.4-282.4 156 0 282.4 126.4 282.4 282.4 0 156-126.4 282.4-282.4 282.4z m0-532.8c-138.4 0-250.4 112-250.4 250.4s112 250.4 250.4 250.4 250.4-112 250.4-250.4-112-250.4-250.4-250.4z" fill="#303C42" p-id="12930"></path><path d="M604.8 775.2c-28 0-51.2-23.2-51.2-51.2 0-28 23.2-51.2 51.2-51.2S656 696 656 724c0 28-23.2 51.2-51.2 51.2z m0-86.4c-19.2 0-35.2 16-35.2 35.2 0 19.2 16 35.2 35.2 35.2 19.2 0 35.2-16 35.2-35.2 0-19.2-16-35.2-35.2-35.2zM760 775.2c-28 0-51.2-23.2-51.2-51.2 0-28 23.2-51.2 51.2-51.2 28 0 51.2 23.2 51.2 51.2 0 28-23.2 51.2-51.2 51.2z m0-86.4c-19.2 0-35.2 16-35.2 35.2 0 19.2 16 35.2 35.2 35.2 19.2 0 35.2-16 35.2-35.2 0-19.2-16-35.2-35.2-35.2zM690.4 895.2c-28 0-51.2-23.2-51.2-51.2 0-28 23.2-51.2 51.2-51.2 28 0 51.2 23.2 51.2 51.2 0 28.8-22.4 51.2-51.2 51.2z m0-85.6c-19.2 0-35.2 16-35.2 35.2 0 19.2 16 35.2 35.2 35.2 19.2 0 35.2-16 35.2-35.2 0-20-15.2-35.2-35.2-35.2z" fill="#303C42" p-id="12931"></path><path d="M348 908h-312c-4.8 0-8-3.2-8-8s3.2-8 8-8h312c4.8 0 8 3.2 8 8s-3.2 8-8 8z" fill="#303C42" p-id="12932"></path><path d="M275.2 396H116.8c-4.8 0-8-3.2-8-8s3.2-8 8-8h158.4c4.8 0 8 3.2 8 8s-4 8-8 8z" fill="#303C42" p-id="12933"></path><path d="M246.4 302.4H140.8c-4.8 0-8-3.2-8-8s3.2-8 8-8h105.6c4.8 0 8 3.2 8 8 0 4-3.2 8-8 8z" fill="#303C42" p-id="12934"></path></svg>