<?xml version="1.0" standalone="no"?><!DOCTYPE svg PUBLIC "-//W3C//DTD SVG 1.1//EN" "http://www.w3.org/Graphics/SVG/1.1/DTD/svg11.dtd"><svg t="1742372760196" class="icon" viewBox="0 0 1024 1024" version="1.1" xmlns="http://www.w3.org/2000/svg" p-id="11385" xmlns:xlink="http://www.w3.org/1999/xlink" width="200" height="200"><path d="M234.4 827.2c-18.4 0-36-9.6-46.4-24.8-16.8-25.6-9.6-60 16-76.8l156-104 33.6-76 65.6-179.2h-53.6l-54.4 66.4c-10.4 12.8-26.4 20-43.2 20-12.8 0-25.6-4.8-35.2-12.8-11.2-9.6-18.4-22.4-20-37.6-1.6-14.4 3.2-28.8 12.8-40.8l71.2-86.4c10.4-12.8 26.4-20 43.2-20h128.8c2.4 0 5.6 0 8.8 0.8h1.6c4 0.8 7.2 1.6 10.4 3.2l107.2 31.2h56.8l44.8-77.6c7.2-12.8 19.2-21.6 33.6-25.6 14.4-4 29.6-1.6 42.4 5.6 12.8 7.2 21.6 19.2 25.6 33.6 4 14.4 1.6 29.6-5.6 42.4l-60.8 105.6c-9.6 16.8-28 28-48 28H632l-47.2 136 43.2 14.4c16 5.6 28.8 17.6 34.4 33.6L722.4 736c10.4 29.6-4 61.6-33.6 72-6.4 2.4-12 3.2-19.2 3.2-23.2 0-44-14.4-52-36.8l-52-124.8-84-28.8-27.2 61.6c-4 9.6-11.2 17.6-20 24l-169.6 112c-8.8 5.6-19.2 8.8-30.4 8.8zM221.6 752c-11.2 7.2-13.6 21.6-6.4 32.8 4 6.4 12 10.4 20 10.4 4.8 0 8.8-1.6 12.8-4l169.6-112c4-2.4 6.4-5.6 8.8-10.4l33.6-75.2c1.6-4 4.8-7.2 8.8-8.8 4-1.6 8.8-1.6 12 0.8 0.8 0 1.6 0.8 2.4 0.8L584 620.8c4 1.6 8 4.8 9.6 8.8L648 762.4c4.8 12.8 18.4 19.2 30.4 15.2s18.4-17.6 14.4-30.4L632 597.6c-2.4-7.2-8-12.8-14.4-15.2l-58.4-20c-4-1.6-7.2-4-8.8-8-1.6-4-2.4-8-0.8-12l56.8-162.4c2.4-6.4 8-10.4 15.2-10.4h104.8c8 0 16-4.8 20-12l60.8-105.6c6.4-11.2 2.4-25.6-8.8-32-5.6-3.2-12-4-17.6-2.4-6.4 1.6-11.2 5.6-14.4 11.2l-49.6 85.6c-3.2 4.8-8 8-13.6 8h-68.8c-1.6 0-3.2 0-4.8-0.8l-110.4-32c-0.8 0-1.6 0-1.6-0.8-1.6-0.8-3.2-0.8-4.8-1.6H379.2c-7.2 0-13.6 3.2-18.4 8.8l-71.2 86.4c-4 4.8-5.6 11.2-5.6 17.6 0.8 6.4 4 12 8.8 16 4 3.2 9.6 5.6 15.2 5.6 7.2 0 13.6-3.2 18.4-8.8l59.2-72c3.2-4 7.2-5.6 12-5.6h84c5.6 0 10.4 2.4 12.8 7.2 3.2 4 4 9.6 1.6 14.4l-72 200s0 0.8-0.8 0.8l-36 80.8c-1.6 2.4-3.2 4.8-5.6 7.2L221.6 752z" fill="#303C42" p-id="11386"></path><path d="M611.2 254.4c-44.8 0-80.8-36-80.8-80.8s36-80.8 80.8-80.8 80.8 36 80.8 80.8S656 254.4 611.2 254.4z m0-129.6c-27.2 0-48.8 21.6-48.8 48.8 0 27.2 21.6 48.8 48.8 48.8 27.2 0 48.8-21.6 48.8-48.8 0-27.2-21.6-48.8-48.8-48.8zM899.2 810.4H373.6c-8.8 0-16-7.2-16-16s7.2-16 16-16h520.8l100.8-69.6c7.2-4.8 17.6-3.2 22.4 4 4.8 7.2 3.2 17.6-4 22.4l-104.8 72c-3.2 2.4-6.4 3.2-9.6 3.2z" fill="#303C42" p-id="11387"></path><path d="M516.8 931.2c-1.6 0-3.2 0-5.6-0.8L14.4 756.8c-8-3.2-12.8-12-9.6-20 3.2-8 12-12.8 20-9.6l492 171.2 118.4-32c8.8-2.4 17.6 2.4 20 11.2 2.4 8.8-2.4 17.6-11.2 20l-123.2 33.6h-4z" fill="#303C42" p-id="11388"></path></svg>