<?xml version="1.0" standalone="no"?><!DOCTYPE svg PUBLIC "-//W3C//DTD SVG 1.1//EN" "http://www.w3.org/Graphics/SVG/1.1/DTD/svg11.dtd"><svg t="1742372711119" class="icon" viewBox="0 0 1024 1024" version="1.1" xmlns="http://www.w3.org/2000/svg" p-id="7615" xmlns:xlink="http://www.w3.org/1999/xlink" width="200" height="200"><path d="M354.4 799.2c-4 0-8-1.6-11.2-4.8L229.6 680.8c-3.2-3.2-4.8-7.2-4.8-11.2 0-4 1.6-8 4.8-11.2l428.8-428.8c6.4-6.4 16-6.4 22.4 0l113.6 113.6c3.2 3.2 4.8 7.2 4.8 11.2s-1.6 8-4.8 11.2L365.6 794.4c-3.2 3.2-7.2 4.8-11.2 4.8zM263.2 669.6L354.4 760l406.4-406.4-91.2-90.4-406.4 406.4z" fill="#303C42" p-id="7616"></path><path d="M914.4 501.6c-4 0-8-1.6-11.2-4.8l-376-376c-3.2-3.2-4.8-7.2-4.8-11.2 0-4 1.6-8 4.8-11.2L592 33.6c6.4-6.4 16-6.4 22.4 0l375.2 375.2c6.4 6.4 6.4 16 0 22.4l-64.8 64.8c-2.4 3.2-6.4 5.6-10.4 5.6z m-352.8-392l352.8 352.8 42.4-42.4L604 67.2l-42.4 42.4z" fill="#303C42" p-id="7617"></path><path d="M926.4 383.2c-4 0-8-1.6-11.2-4.8L644.8 108.8c-3.2-3.2-4.8-7.2-4.8-11.2 0-4 1.6-8 4.8-11.2l64.8-64.8c6.4-6.4 16-6.4 22.4 0l269.6 269.6c3.2 3.2 4.8 7.2 4.8 11.2 0 4-1.6 8-4.8 11.2l-64.8 64.8c-2.4 3.2-6.4 4.8-10.4 4.8zM679.2 97.6l247.2 247.2 42.4-42.4L721.6 55.2l-42.4 42.4z" fill="#303C42" p-id="7618"></path><path d="M939.2 266.4c-4 0-8-1.6-11.2-4.8L762.4 96c-6.4-6.4-6.4-16 0-22.4l64.8-64.8c5.6-6.4 16.8-6.4 22.4 0l165.6 165.6c3.2 3.2 4.8 7.2 4.8 11.2s-1.6 8-4.8 11.2l-64.8 64.8c-3.2 3.2-7.2 4.8-11.2 4.8zM796 84.8l143.2 143.2 42.4-42.4-143.2-143.2-42.4 42.4zM420 995.2c-4 0-8-1.6-11.2-4.8L33.6 615.2c-6.4-6.4-6.4-16 0-22.4l64.8-64.8c5.6-6.4 16.8-6.4 22.4 0L496 903.2c3.2 3.2 4.8 7.2 4.8 11.2 0 4-1.6 8-4.8 11.2l-64.8 64.8c-2.4 3.2-6.4 4.8-11.2 4.8z m-352.8-392l352.8 352.8 42.4-42.4-352.8-352-42.4 41.6z" fill="#303C42" p-id="7619"></path><path d="M302.4 1007.2c-4 0-8-1.6-11.2-4.8L21.6 732.8c-3.2-3.2-4.8-7.2-4.8-11.2 0-4 1.6-8 4.8-11.2l64.8-64.8c6.4-6.4 16-6.4 22.4 0l269.6 269.6c3.2 3.2 4.8 7.2 4.8 11.2 0 4-1.6 8-4.8 11.2l-64.8 64.8c-3.2 3.2-7.2 4.8-11.2 4.8zM55.2 721.6l247.2 247.2 42.4-42.4-247.2-247.2-42.4 42.4z" fill="#303C42" p-id="7620"></path><path d="M185.6 1020c-4 0-8-1.6-11.2-4.8L8.8 849.6c-3.2-3.2-4.8-7.2-4.8-11.2 0-4 1.6-8 4.8-11.2l64.8-64.8c6.4-6.4 16-6.4 22.4 0L261.6 928c3.2 3.2 4.8 7.2 4.8 11.2 0 4-1.6 8-4.8 11.2l-64.8 64.8c-3.2 3.2-7.2 4.8-11.2 4.8zM42.4 838.4l143.2 143.2 42.4-42.4-143.2-143.2-42.4 42.4z" fill="#303C42" p-id="7621"></path></svg>