<?xml version="1.0" standalone="no"?><!DOCTYPE svg PUBLIC "-//W3C//DTD SVG 1.1//EN" "http://www.w3.org/Graphics/SVG/1.1/DTD/svg11.dtd"><svg t="1742372717565" class="icon" viewBox="0 0 1024 1024" version="1.1" xmlns="http://www.w3.org/2000/svg" p-id="7767" xmlns:xlink="http://www.w3.org/1999/xlink" width="200" height="200"><path d="M539.539377 335.111736c-110.338895 0-199.292519-75.075949-199.292519-167.442116S429.200482 0 539.539377 0s199.975028 75.075949 199.975028 167.66962-89.636133 167.442117-199.975028 167.442116z m0-312.361448C441.940643 22.750288 362.997145 87.81611 362.997145 167.66962s79.626007 144.691829 177.224741 144.691829 177.22474-64.83832 177.22474-144.691829S637.365614 22.750288 539.539377 22.750288z" fill="#666666" p-id="7768"></path><path d="M539.539377 780.78987a11.375144 11.375144 0 0 1-11.375144-11.375143V323.736593a11.375144 11.375144 0 0 1 22.750288 0v445.678134a11.375144 11.375144 0 0 1-11.375144 11.375143z" fill="#666666" p-id="7769"></path><path d="M824.145475 630.865475a10.465132 10.465132 0 0 1-5.232566-1.365017L544.999446 483.671114a11.375144 11.375144 0 0 1-4.77756-15.470195 11.375144 11.375144 0 0 1 15.470195-4.550058l273.003451 145.829344a11.602647 11.602647 0 0 1 4.550058 15.470195 11.147641 11.147641 0 0 1-9.100115 5.915075zM300.88886 987.362482a11.83015 11.83015 0 0 1-8.645109-3.867549 11.147641 11.147641 0 0 1 1.137514-15.925201l238.650517-206.800115a11.602647 11.602647 0 0 1 16.152704 1.137515 11.147641 11.147641 0 0 1-1.137514 15.925201l-238.87802 206.800114a11.147641 11.147641 0 0 1-7.280092 2.730035z" fill="#666666" p-id="7770"></path><path d="M300.88886 987.362482a11.602647 11.602647 0 0 1-7.962601-2.957538L184.63489 880.891136a11.375144 11.375144 0 0 1 0-16.152704 11.147641 11.147641 0 0 1 15.925202 0l108.518872 103.286305a11.375144 11.375144 0 0 1-7.735098 19.565248zM829.378041 884.076176a11.602647 11.602647 0 0 1-3.867549 0l-289.838664-103.968814a11.375144 11.375144 0 0 1 7.735098-21.612773l289.838664 103.513808a11.375144 11.375144 0 0 1-3.867549 22.750288z" fill="#666666" p-id="7771"></path><path d="M759.989664 1023.762942a14.560184 14.560184 0 0 1-5.232566 0 11.602647 11.602647 0 0 1-5.005064-15.242693l69.388378-139.686766a11.602647 11.602647 0 0 1 15.242692-5.232566 11.375144 11.375144 0 0 1 5.232566 15.242693l-69.61588 139.686766a10.920138 10.920138 0 0 1-10.010126 5.232566zM325.686674 667.038432a11.147641 11.147641 0 0 1-8.190104-4.77756 11.147641 11.147641 0 0 1 2.730035-15.697698l213.852703-152.881933a11.602647 11.602647 0 0 1 15.925201 2.502532 11.375144 11.375144 0 0 1-2.730034 15.925201l-213.852704 152.881933a11.83015 11.83015 0 0 1-7.735097 2.047525z" fill="#666666" p-id="7772"></path></svg>